<svg id="svg" version="1.1" xmlns="http://www.w3.org/2000/svg" xmlns:xlink="http://www.w3.org/1999/xlink" width="400" height="409.03490759753595" viewBox="0, 0, 400,409.03490759753595"><g id="svgg"><path id="path0" d="M192.302 7.694 C 192.180 8.060,190.374 8.184,185.281 8.173 C 179.826 8.162,178.381 8.271,178.214 8.708 C 178.051 9.132,177.489 9.194,175.757 8.977 C 174.045 8.763,173.429 8.828,173.168 9.248 C 172.918 9.649,172.001 9.781,169.812 9.729 C 167.342 9.671,166.800 9.769,166.800 10.271 C 166.800 10.741,166.440 10.850,165.256 10.737 C 164.348 10.650,163.518 10.798,163.240 11.095 C 162.981 11.373,161.886 11.600,160.808 11.600 C 159.729 11.600,158.752 11.754,158.635 11.943 C 158.296 12.492,153.747 13.324,152.624 13.042 C 151.839 12.845,151.600 12.937,151.600 13.436 C 151.600 13.945,151.294 14.052,150.200 13.924 C 149.178 13.805,148.800 13.915,148.800 14.331 C 148.800 14.771,148.441 14.845,147.242 14.653 C 146.062 14.464,145.628 14.549,145.455 15.002 C 145.328 15.331,144.780 15.600,144.236 15.600 C 143.692 15.600,143.125 15.797,142.976 16.038 C 142.827 16.280,142.187 16.401,141.553 16.308 C 140.888 16.210,140.400 16.322,140.400 16.571 C 140.400 17.014,138.981 17.589,135.344 18.620 C 134.213 18.940,132.773 19.471,132.144 19.799 C 131.515 20.127,130.413 20.507,129.696 20.643 C 128.978 20.779,128.292 21.051,128.171 21.246 C 128.045 21.450,127.639 21.435,127.220 21.211 C 126.640 20.900,126.445 20.983,126.282 21.610 C 126.168 22.044,125.794 22.400,125.450 22.400 C 125.106 22.400,124.183 22.760,123.400 23.200 C 122.617 23.640,121.797 24.000,121.580 24.000 C 121.362 24.000,119.649 24.726,117.774 25.612 C 115.898 26.499,114.211 27.130,114.024 27.015 C 113.837 26.899,113.576 27.086,113.444 27.430 C 113.285 27.845,112.934 27.970,112.402 27.801 C 111.862 27.629,111.600 27.728,111.600 28.102 C 111.600 28.408,110.295 29.269,108.700 30.015 C 107.105 30.761,105.080 31.849,104.200 32.432 C 103.320 33.015,101.520 34.080,100.200 34.800 C 98.880 35.520,95.828 37.389,93.418 38.954 C 91.008 40.519,88.735 41.980,88.366 42.200 C 86.189 43.497,82.807 46.088,82.962 46.339 C 83.062 46.501,82.768 46.662,82.308 46.697 C 81.848 46.732,81.341 46.972,81.181 47.231 C 81.021 47.490,80.689 47.579,80.445 47.428 C 80.193 47.272,80.000 47.417,80.000 47.764 C 80.000 48.100,79.055 49.075,77.900 49.931 C 75.870 51.434,73.931 52.972,70.623 55.699 C 66.667 58.961,54.035 71.364,52.891 73.110 C 52.500 73.707,52.049 73.942,51.581 73.794 C 51.188 73.669,50.752 73.755,50.610 73.984 C 50.469 74.213,50.543 74.400,50.776 74.400 C 51.465 74.400,51.266 74.924,50.093 76.200 C 49.486 76.860,47.379 79.380,45.411 81.800 C 43.443 84.220,41.720 86.290,41.583 86.400 C 41.445 86.510,40.193 88.310,38.800 90.400 C 37.407 92.490,36.156 94.290,36.021 94.400 C 35.885 94.510,35.190 95.522,34.478 96.650 C 33.765 97.777,32.826 99.109,32.391 99.611 C 31.956 100.112,31.600 100.688,31.600 100.891 C 31.600 101.094,30.832 102.461,29.893 103.930 C 28.954 105.398,27.962 107.050,27.688 107.600 C 26.467 110.057,23.728 114.832,23.286 115.274 C 23.019 115.541,22.800 115.994,22.800 116.280 C 22.800 116.566,22.609 116.800,22.376 116.800 C 22.143 116.800,22.047 116.952,22.162 117.138 C 22.277 117.324,21.506 119.259,20.449 121.438 C 19.392 123.617,18.204 126.255,17.809 127.300 C 17.414 128.345,16.936 129.200,16.746 129.200 C 16.556 129.200,16.400 129.560,16.400 130.000 C 16.400 130.440,16.220 130.800,16.000 130.800 C 15.780 130.800,15.600 131.340,15.600 132.000 C 15.600 132.820,15.403 133.200,14.976 133.200 C 14.633 133.200,14.465 133.381,14.602 133.603 C 14.819 133.954,13.806 137.453,12.807 139.800 C 12.620 140.240,12.378 140.960,12.269 141.400 C 11.788 143.341,10.433 146.589,10.050 146.717 C 9.811 146.796,9.731 147.357,9.864 148.022 C 10.028 148.842,9.923 149.255,9.508 149.414 C 9.131 149.559,8.986 149.991,9.105 150.615 C 9.221 151.224,9.080 151.671,8.727 151.806 C 8.345 151.953,8.215 152.468,8.325 153.407 C 8.437 154.366,8.307 154.861,7.903 155.016 C 7.544 155.154,7.386 155.594,7.494 156.157 C 7.593 156.675,7.388 157.355,7.023 157.720 C 6.597 158.145,6.462 158.707,6.626 159.362 C 6.764 159.910,6.695 160.952,6.474 161.679 C 6.253 162.405,5.962 163.495,5.828 164.100 C 5.693 164.709,5.314 165.200,4.978 165.200 C 4.486 165.200,4.456 165.358,4.823 166.042 C 5.429 167.176,4.958 169.600,4.130 169.600 C 3.615 169.600,3.534 169.939,3.699 171.400 C 3.859 172.819,3.776 173.200,3.305 173.200 C 2.869 173.200,2.767 173.495,2.926 174.300 C 3.294 176.161,3.328 176.550,3.263 178.100 C 3.219 179.139,3.015 179.600,2.600 179.600 C 1.951 179.600,1.821 181.200,2.359 182.573 C 2.789 183.672,2.414 185.200,1.713 185.200 C 1.240 185.200,1.166 185.584,1.347 187.100 C 1.823 191.068,1.598 198.173,0.981 198.644 C 0.233 199.215,0.108 214.636,0.849 214.883 C 1.389 215.063,2.019 224.414,1.529 224.980 C 0.948 225.651,1.136 228.800,1.757 228.800 C 2.497 228.800,2.925 230.620,2.410 231.582 C 1.810 232.702,1.899 234.400,2.556 234.400 C 3.223 234.400,3.652 237.080,3.144 238.074 C 2.617 239.106,2.735 240.400,3.357 240.400 C 3.664 240.400,4.024 240.685,4.157 241.033 C 4.531 242.008,4.445 243.200,4.000 243.200 C 3.780 243.200,3.600 243.470,3.600 243.800 C 3.600 244.130,3.862 244.400,4.182 244.400 C 4.546 244.400,4.852 244.962,5.000 245.900 C 5.271 247.625,5.451 248.540,5.836 250.143 C 6.022 250.919,5.932 251.412,5.555 251.680 C 5.119 251.991,5.147 252.028,5.685 251.856 C 6.224 251.683,6.424 251.953,6.619 253.118 C 6.756 253.933,7.045 255.182,7.263 255.894 C 7.480 256.605,7.550 257.529,7.417 257.946 C 7.259 258.444,7.405 258.793,7.839 258.960 C 8.344 259.153,8.450 259.539,8.281 260.576 C 8.120 261.568,8.224 262.000,8.662 262.168 C 9.102 262.337,9.193 262.722,9.000 263.600 C 8.794 264.538,8.874 264.800,9.368 264.800 C 9.772 264.800,10.000 265.154,10.000 265.781 C 10.000 266.703,10.358 267.829,11.303 269.874 C 11.525 270.354,11.610 271.119,11.491 271.574 C 11.348 272.120,11.466 272.400,11.837 272.400 C 12.167 272.400,12.400 272.804,12.400 273.376 C 12.400 273.913,12.595 274.473,12.832 274.620 C 13.070 274.767,13.162 275.299,13.035 275.802 C 12.884 276.406,13.009 276.794,13.403 276.946 C 13.731 277.072,14.000 277.453,14.000 277.793 C 14.000 278.133,14.159 278.723,14.353 279.105 C 15.431 281.223,15.682 282.008,15.466 282.573 C 15.310 282.980,15.448 283.200,15.859 283.200 C 16.296 283.200,16.428 283.448,16.284 284.000 C 16.159 284.478,16.272 284.800,16.564 284.800 C 16.833 284.800,17.467 285.835,17.974 287.100 C 18.917 289.454,22.092 296.363,22.892 297.800 C 23.137 298.240,24.048 299.950,24.918 301.600 C 25.787 303.250,26.637 304.780,26.806 305.000 C 27.521 305.928,28.825 308.508,28.662 308.672 C 28.564 308.769,28.882 309.279,29.368 309.803 C 29.854 310.328,30.670 311.569,31.180 312.561 C 31.690 313.553,32.443 314.725,32.854 315.166 C 33.264 315.606,33.600 316.154,33.600 316.383 C 33.600 316.612,33.801 316.800,34.047 316.800 C 34.292 316.800,34.403 317.144,34.293 317.565 C 34.154 318.099,34.341 318.396,34.912 318.545 C 35.619 318.730,35.658 318.849,35.192 319.410 C 34.587 320.138,35.271 320.901,36.207 320.542 C 36.470 320.441,36.930 320.953,37.228 321.679 C 37.526 322.406,38.171 323.320,38.661 323.710 C 39.151 324.101,39.678 324.814,39.830 325.295 C 39.983 325.776,40.523 326.496,41.030 326.895 C 41.538 327.294,42.073 327.999,42.219 328.460 C 42.366 328.922,43.096 329.836,43.843 330.491 C 44.589 331.147,45.200 331.907,45.200 332.180 C 45.200 332.651,46.285 333.936,49.489 337.260 C 50.264 338.063,50.774 338.918,50.625 339.160 C 50.475 339.402,50.608 339.600,50.919 339.600 C 51.230 339.600,52.906 341.160,54.643 343.068 C 56.379 344.975,59.229 347.900,60.975 349.568 C 66.749 355.083,67.600 355.958,67.600 356.381 C 67.600 356.611,67.863 356.800,68.185 356.800 C 68.507 356.800,69.879 357.790,71.235 359.000 C 72.591 360.210,73.858 361.200,74.050 361.200 C 74.243 361.200,74.400 361.662,74.400 362.227 C 74.400 363.082,74.538 363.210,75.226 362.992 C 75.838 362.797,76.385 363.074,77.348 364.066 C 78.062 364.800,79.130 365.622,79.723 365.892 C 80.315 366.162,80.800 366.642,80.800 366.960 C 80.800 367.277,81.308 367.648,81.928 367.784 C 82.549 367.921,83.595 368.520,84.252 369.116 C 84.909 369.712,85.931 370.455,86.523 370.768 C 87.115 371.080,87.600 371.463,87.600 371.619 C 87.600 371.775,88.140 372.127,88.800 372.400 C 89.460 372.673,90.000 373.055,90.000 373.249 C 90.000 373.442,90.257 373.600,90.572 373.600 C 90.886 373.600,91.799 374.219,92.601 374.975 C 93.402 375.731,94.566 376.461,95.188 376.597 C 95.809 376.734,96.634 377.195,97.021 377.623 C 97.407 378.050,97.858 378.400,98.021 378.400 C 98.185 378.400,99.462 379.086,100.859 379.924 C 102.257 380.763,104.092 381.798,104.939 382.224 C 107.799 383.666,108.000 383.789,108.000 384.095 C 108.000 384.263,108.225 384.396,108.500 384.392 C 109.397 384.378,114.400 386.977,114.400 387.457 C 114.400 387.728,114.737 387.837,115.200 387.716 C 115.741 387.574,116.000 387.704,116.000 388.116 C 116.000 388.528,116.259 388.657,116.800 388.516 C 117.352 388.372,117.600 388.504,117.600 388.941 C 117.600 389.342,117.822 389.490,118.205 389.343 C 118.538 389.215,119.077 389.332,119.403 389.602 C 119.729 389.873,120.357 390.000,120.798 389.885 C 121.240 389.769,121.514 389.815,121.409 389.986 C 121.303 390.157,122.068 390.614,123.108 391.001 C 124.149 391.388,125.171 391.862,125.380 392.053 C 125.589 392.244,126.090 392.400,126.493 392.400 C 126.895 392.400,127.324 392.659,127.446 392.975 C 127.567 393.291,127.886 393.465,128.154 393.362 C 128.765 393.128,131.600 394.284,131.600 394.768 C 131.600 394.964,131.987 395.024,132.460 394.900 C 132.973 394.766,133.497 394.911,133.760 395.259 C 134.002 395.579,134.560 395.866,135.000 395.895 C 136.652 396.005,138.216 396.512,138.673 397.086 C 138.934 397.413,139.297 397.588,139.480 397.474 C 140.175 397.045,149.672 399.905,150.132 400.683 C 150.352 401.055,150.623 401.115,150.932 400.863 C 151.485 400.412,157.037 401.690,156.933 402.244 C 156.897 402.440,157.662 402.537,158.633 402.460 C 159.920 402.358,160.400 402.466,160.399 402.860 C 160.399 403.265,160.950 403.366,162.598 403.263 C 164.282 403.158,164.851 403.268,165.029 403.731 C 165.212 404.209,165.718 404.289,167.430 404.112 C 169.125 403.937,169.600 404.010,169.600 404.445 C 169.600 404.859,170.242 405.009,172.100 405.027 C 176.642 405.072,182.987 405.683,183.800 406.154 C 184.912 406.797,213.994 406.727,217.600 406.073 C 220.436 405.558,230.555 404.327,232.800 404.224 C 233.570 404.188,234.593 403.943,235.074 403.680 C 235.554 403.416,236.949 403.200,238.174 403.200 C 239.569 403.200,240.400 403.030,240.400 402.746 C 240.400 402.437,240.978 402.371,242.200 402.538 C 243.492 402.715,244.001 402.646,244.002 402.292 C 244.005 401.668,249.256 400.352,249.780 400.844 C 250.330 401.360,250.800 401.281,250.800 400.673 C 250.800 400.042,258.053 397.892,258.980 398.248 C 259.321 398.379,259.600 398.311,259.600 398.097 C 259.600 397.557,263.094 396.274,263.813 396.550 C 264.136 396.673,264.400 396.601,264.400 396.387 C 264.400 396.174,264.921 396.000,265.557 396.000 C 266.253 396.000,266.813 395.743,266.962 395.354 C 267.128 394.922,267.532 394.770,268.185 394.895 C 268.721 394.998,269.238 394.879,269.333 394.631 C 269.428 394.384,270.742 393.761,272.253 393.246 C 273.764 392.732,276.515 391.598,278.368 390.727 C 280.220 389.855,282.065 389.228,282.468 389.334 C 282.941 389.457,283.200 389.309,283.200 388.916 C 283.200 388.504,283.459 388.374,284.000 388.516 C 284.466 388.638,284.800 388.528,284.800 388.253 C 284.800 387.824,291.588 384.400,292.439 384.400 C 292.638 384.400,292.800 384.238,292.800 384.039 C 292.800 383.622,295.158 382.650,295.900 382.761 C 296.175 382.802,296.400 382.659,296.400 382.445 C 296.400 382.035,304.945 376.800,305.614 376.800 C 305.826 376.800,306.000 376.620,306.000 376.400 C 306.000 376.180,306.236 376.000,306.525 376.000 C 306.813 376.000,307.436 375.640,307.908 375.200 C 308.380 374.760,308.855 374.400,308.963 374.400 C 309.242 374.400,312.894 371.932,313.529 371.314 C 313.819 371.032,314.211 370.800,314.400 370.800 C 314.589 370.800,314.981 370.563,315.271 370.272 C 315.562 369.982,316.790 369.050,318.000 368.200 C 319.210 367.350,320.438 366.418,320.729 366.128 C 321.019 365.837,321.416 365.600,321.609 365.600 C 321.803 365.600,322.573 364.970,323.321 364.200 C 324.069 363.430,324.843 362.796,325.040 362.791 C 325.238 362.786,326.056 362.201,326.859 361.491 C 330.341 358.409,330.786 358.142,331.257 358.849 C 331.501 359.215,331.539 359.031,331.369 358.300 C 331.219 357.653,331.281 357.200,331.520 357.200 C 332.366 357.200,343.371 346.519,348.109 341.100 C 349.215 339.835,350.374 338.800,350.684 338.800 C 350.994 338.800,351.137 338.622,351.002 338.403 C 350.867 338.185,351.172 337.563,351.678 337.022 C 352.185 336.480,353.230 335.272,354.000 334.337 C 354.770 333.402,355.985 332.056,356.700 331.346 C 357.415 330.635,358.000 329.874,358.000 329.655 C 358.000 329.436,358.226 329.019,358.502 328.729 C 358.778 328.438,359.717 327.152,360.588 325.872 C 361.459 324.591,362.358 323.421,362.587 323.272 C 362.815 323.122,363.256 322.505,363.568 321.900 C 363.880 321.295,364.385 320.800,364.691 320.800 C 364.997 320.800,365.140 320.627,365.010 320.416 C 364.691 319.900,365.661 318.400,366.314 318.400 C 366.600 318.400,366.799 318.175,366.754 317.900 C 366.619 317.061,367.251 316.000,367.886 316.000 C 368.240 316.000,368.396 315.767,368.268 315.432 C 368.148 315.119,368.469 314.410,368.983 313.856 C 369.496 313.303,369.819 312.753,369.701 312.634 C 369.582 312.516,369.770 312.310,370.118 312.176 C 370.466 312.042,370.869 311.396,371.013 310.740 C 371.157 310.083,371.517 309.453,371.813 309.340 C 372.109 309.226,372.463 308.622,372.600 307.998 C 372.738 307.374,373.253 306.428,373.746 305.896 C 374.239 305.364,374.573 304.720,374.488 304.464 C 374.403 304.209,374.618 303.891,374.967 303.757 C 375.315 303.624,375.600 303.174,375.600 302.757 C 375.600 302.341,375.780 302.000,376.000 302.000 C 376.220 302.000,376.400 301.730,376.400 301.400 C 376.400 301.070,376.682 300.800,377.027 300.800 C 377.472 300.800,377.580 300.568,377.400 300.000 C 377.217 299.423,377.328 299.200,377.800 299.200 C 378.256 299.200,378.382 298.974,378.218 298.456 C 377.934 297.561,381.505 290.294,382.060 290.637 C 382.276 290.771,382.324 290.435,382.173 289.834 C 382.011 289.188,382.080 288.800,382.357 288.800 C 382.600 288.800,382.800 288.440,382.800 288.000 C 382.800 287.556,383.067 287.200,383.400 287.200 C 383.773 287.200,384.000 286.822,384.000 286.200 C 384.000 285.650,384.180 285.200,384.400 285.200 C 384.620 285.200,384.800 284.750,384.800 284.200 C 384.800 283.650,384.955 283.200,385.145 283.200 C 385.334 283.200,385.403 282.752,385.299 282.205 C 385.169 281.526,385.318 281.130,385.766 280.958 C 386.194 280.793,386.340 280.442,386.184 279.951 C 386.034 279.477,386.169 279.110,386.547 278.965 C 386.878 278.838,387.065 278.514,386.962 278.246 C 386.718 277.609,387.894 274.800,388.405 274.800 C 388.622 274.800,388.800 274.260,388.800 273.600 C 388.800 272.940,389.001 272.400,389.247 272.400 C 389.511 272.400,389.613 271.979,389.496 271.368 C 389.380 270.759,389.500 270.260,389.790 270.148 C 390.063 270.044,390.202 269.545,390.103 269.027 C 390.005 268.514,390.122 267.972,390.362 267.823 C 390.603 267.675,390.800 267.233,390.800 266.842 C 390.800 266.452,391.136 265.067,391.546 263.766 C 392.431 260.960,393.872 255.530,394.218 253.700 C 394.358 252.959,394.708 252.400,395.032 252.400 C 395.689 252.400,395.771 251.931,395.213 251.373 C 394.684 250.844,395.163 249.200,395.847 249.200 C 396.494 249.200,396.584 248.561,395.988 248.192 C 395.402 247.831,395.952 245.109,396.735 244.490 C 397.213 244.112,397.276 243.802,396.978 243.290 C 396.445 242.374,396.715 240.800,397.405 240.800 C 397.841 240.800,397.904 240.214,397.714 237.941 C 397.509 235.500,397.577 235.006,398.177 234.567 C 398.600 234.258,398.756 233.853,398.569 233.550 C 398.105 232.799,398.359 229.459,398.916 229.000 C 399.639 228.403,399.891 212.876,399.522 191.707 C 399.439 186.933,399.295 185.569,398.857 185.400 C 398.416 185.231,398.355 184.608,398.568 182.443 C 398.801 180.080,398.745 179.664,398.161 179.441 C 397.576 179.216,397.518 178.776,397.737 176.190 C 397.941 173.781,397.882 173.200,397.433 173.200 C 397.013 173.200,396.930 172.802,397.093 171.584 C 397.249 170.416,397.141 169.834,396.701 169.484 C 395.996 168.923,395.543 166.882,396.054 166.567 C 396.244 166.449,396.400 165.993,396.400 165.553 C 396.400 165.113,396.220 164.864,395.999 165.000 C 395.474 165.325,394.865 163.685,394.166 160.060 C 393.854 158.444,393.493 156.951,393.365 156.743 C 393.236 156.535,393.349 156.103,393.615 155.782 C 394.004 155.314,393.973 155.200,393.457 155.200 C 393.082 155.200,392.715 154.742,392.574 154.100 C 392.441 153.495,391.983 151.866,391.555 150.481 C 391.127 149.095,390.884 147.788,391.014 147.577 C 391.144 147.366,390.969 146.912,390.625 146.568 C 390.225 146.168,390.087 145.592,390.243 144.971 C 390.430 144.225,390.327 144.000,389.800 144.000 C 389.267 144.000,389.170 143.776,389.364 143.000 C 389.507 142.433,389.442 142.000,389.215 142.000 C 388.995 142.000,388.697 141.505,388.552 140.900 C 388.408 140.295,388.167 139.620,388.017 139.400 C 387.438 138.551,386.713 135.664,386.974 135.243 C 387.132 134.986,386.965 134.800,386.577 134.800 C 386.111 134.800,385.968 134.564,386.109 134.026 C 386.226 133.578,386.077 133.162,385.756 133.038 C 385.450 132.921,385.200 132.583,385.200 132.288 C 385.200 131.992,384.840 131.005,384.400 130.094 C 383.960 129.184,383.600 128.158,383.600 127.814 C 383.600 127.238,382.878 125.671,382.395 125.200 C 381.725 124.546,377.489 115.211,377.448 114.301 C 377.422 113.696,377.183 113.201,376.918 113.201 C 376.500 113.200,374.622 110.261,372.444 106.200 C 372.090 105.540,371.710 104.910,371.600 104.800 C 371.019 104.219,370.404 102.718,370.610 102.384 C 370.740 102.173,370.567 102.000,370.224 102.000 C 369.881 102.000,369.600 101.758,369.600 101.462 C 369.600 101.166,369.240 100.598,368.800 100.200 C 368.360 99.802,368.000 99.316,368.000 99.121 C 368.000 98.926,367.280 97.791,366.400 96.600 C 365.520 95.409,364.800 94.337,364.800 94.218 C 364.800 94.099,363.180 91.821,361.200 89.156 C 359.220 86.492,357.600 84.062,357.600 83.756 C 357.600 83.450,357.330 83.200,357.000 83.200 C 356.670 83.200,356.399 83.065,356.398 82.900 C 356.397 82.735,355.895 82.060,355.281 81.400 C 354.668 80.740,352.803 78.580,351.137 76.600 C 347.349 72.097,337.302 61.903,332.800 57.994 C 330.930 56.370,329.146 54.792,328.836 54.486 C 328.526 54.180,327.311 53.204,326.136 52.317 C 324.961 51.430,324.000 50.546,324.000 50.352 C 324.000 50.158,323.769 50.000,323.486 50.000 C 323.203 50.000,322.438 49.550,321.786 49.000 C 319.839 47.358,313.082 42.400,312.793 42.400 C 312.645 42.400,312.001 41.950,311.362 41.400 C 310.723 40.851,310.045 40.401,309.856 40.400 C 309.666 40.400,308.372 39.604,306.980 38.630 C 305.587 37.657,303.791 36.548,302.987 36.167 C 302.184 35.786,301.434 35.232,301.320 34.937 C 301.207 34.642,300.814 34.400,300.446 34.400 C 300.079 34.400,299.423 34.159,298.989 33.864 C 298.015 33.203,292.302 30.131,288.460 28.203 C 286.887 27.413,285.600 26.584,285.600 26.360 C 285.600 26.136,285.429 26.059,285.220 26.188 C 285.011 26.317,283.976 26.040,282.920 25.571 C 281.864 25.103,280.640 24.581,280.200 24.411 C 279.760 24.241,278.590 23.730,277.600 23.277 C 276.610 22.823,275.382 22.334,274.871 22.190 C 274.243 22.013,274.019 21.727,274.180 21.307 C 274.384 20.776,274.325 20.765,273.766 21.228 C 273.215 21.686,273.042 21.679,272.657 21.185 C 272.406 20.863,271.726 20.569,271.146 20.531 C 270.566 20.493,269.216 20.078,268.146 19.609 C 267.076 19.140,265.840 18.603,265.400 18.415 C 264.960 18.228,263.729 17.850,262.664 17.575 C 261.599 17.300,260.633 16.829,260.517 16.528 C 260.348 16.087,260.189 16.077,259.707 16.477 C 259.216 16.885,258.983 16.819,258.410 16.111 C 257.930 15.519,257.582 15.378,257.299 15.661 C 256.826 16.134,255.200 15.441,255.200 14.768 C 255.200 14.525,254.658 14.466,253.841 14.619 C 252.908 14.794,252.374 14.705,252.141 14.337 C 251.953 14.042,251.170 13.762,250.400 13.716 C 247.601 13.547,245.600 13.106,245.600 12.658 C 245.600 12.389,244.897 12.191,243.900 12.178 C 241.548 12.147,237.457 11.372,237.309 10.928 C 237.242 10.727,236.562 10.635,235.798 10.724 C 234.806 10.840,234.340 10.710,234.171 10.269 C 233.978 9.765,233.442 9.693,231.247 9.877 C 229.047 10.062,228.437 9.979,227.880 9.423 C 227.331 8.874,226.786 8.794,225.066 9.009 C 223.508 9.204,222.780 9.128,222.366 8.729 C 221.938 8.315,220.195 8.171,215.216 8.139 C 210.748 8.109,208.584 7.952,208.483 7.648 C 208.260 6.979,192.526 7.023,192.302 7.694 M211.671 10.382 C 213.282 10.593,216.130 10.864,218.000 10.985 C 221.400 11.206,223.960 11.546,230.461 12.642 C 232.365 12.963,234.075 13.183,234.261 13.131 C 234.448 13.079,235.500 13.248,236.600 13.507 C 237.700 13.765,241.390 14.616,244.800 15.397 C 248.210 16.177,252.260 17.194,253.800 17.655 C 259.767 19.444,271.033 23.334,273.359 24.408 C 274.702 25.029,276.790 25.924,278.000 26.398 C 280.560 27.400,292.607 33.377,296.400 35.526 C 299.634 37.359,301.833 38.714,306.745 41.901 C 308.865 43.276,311.169 44.666,311.863 44.991 C 312.558 45.315,313.188 45.720,313.263 45.890 C 313.455 46.324,317.071 49.200,317.426 49.200 C 317.586 49.200,318.580 49.965,319.634 50.900 C 320.689 51.835,322.418 53.290,323.476 54.133 C 330.947 60.087,343.171 71.895,347.605 77.443 C 347.938 77.859,349.652 79.910,351.414 82.000 C 355.659 87.034,357.600 89.479,357.600 89.791 C 357.600 89.931,358.770 91.562,360.200 93.415 C 361.630 95.267,362.800 96.894,362.800 97.029 C 362.800 97.163,363.160 97.731,363.600 98.291 C 364.559 99.510,364.642 101.022,363.767 101.357 C 362.133 101.984,351.037 100.607,346.685 99.236 C 345.978 99.014,343.240 98.256,340.600 97.553 C 337.960 96.850,334.180 95.839,332.200 95.306 C 330.220 94.773,327.520 94.182,326.200 93.992 C 324.880 93.802,322.774 93.467,321.520 93.248 C 312.975 91.752,295.250 91.932,283.867 93.631 C 277.502 94.581,271.280 95.674,269.200 96.208 C 267.990 96.518,265.110 97.242,262.800 97.815 C 251.279 100.676,234.330 107.748,225.800 113.253 C 224.480 114.105,223.130 114.926,222.800 115.076 C 221.831 115.518,212.745 122.239,211.000 123.805 C 204.549 129.593,201.198 133.600,202.808 133.600 C 203.032 133.600,204.517 133.135,206.108 132.566 C 217.327 128.554,234.981 125.763,243.800 126.606 C 244.680 126.690,247.290 126.854,249.600 126.971 C 263.171 127.658,284.763 132.724,304.178 139.777 C 326.059 147.725,355.015 149.735,383.906 145.311 C 386.383 144.932,386.668 145.477,389.183 155.400 C 390.250 159.611,390.221 160.097,388.859 160.902 C 386.280 162.425,375.849 165.406,371.000 166.005 C 369.460 166.196,365.950 166.631,363.200 166.972 C 356.806 167.766,344.368 167.767,337.000 166.974 C 333.920 166.642,329.780 166.215,327.800 166.024 C 325.820 165.834,322.580 165.394,320.600 165.047 C 318.620 164.700,314.750 164.038,312.000 163.577 C 304.796 162.367,295.749 160.646,286.800 158.782 C 267.011 154.659,253.660 153.379,245.083 154.784 C 243.809 154.993,240.943 155.364,238.716 155.609 C 217.595 157.933,183.087 171.073,167.361 182.780 C 166.459 183.451,165.614 184.000,165.483 184.000 C 163.969 184.000,148.800 197.308,146.447 200.700 L 145.546 202.000 146.673 201.992 C 147.293 201.987,149.060 201.517,150.600 200.948 C 172.166 192.973,211.387 194.204,240.927 203.783 C 242.507 204.295,245.240 205.114,247.000 205.602 C 248.760 206.091,254.250 207.829,259.200 209.466 C 276.153 215.070,285.218 216.698,304.400 217.581 C 312.420 217.951,328.797 217.298,335.000 216.362 C 341.831 215.331,345.869 214.563,353.600 212.826 C 359.770 211.439,371.638 207.662,376.000 205.696 C 382.001 202.991,384.385 201.860,386.400 200.760 C 396.593 195.194,396.553 195.160,396.318 209.268 C 396.177 217.709,396.257 217.557,390.600 220.199 C 356.220 236.258,315.202 241.593,275.600 235.157 C 268.469 233.998,262.383 232.613,250.400 229.423 C 244.112 227.749,237.143 226.346,231.600 225.640 C 229.730 225.402,226.586 225.001,224.613 224.750 C 205.443 222.307,177.627 225.614,154.681 233.065 C 138.401 238.351,119.132 248.491,107.402 257.945 C 105.863 259.185,103.744 260.848,102.692 261.641 C 98.244 264.991,92.070 270.662,89.889 273.400 C 87.920 275.872,88.341 276.064,92.707 274.682 C 97.599 273.134,102.511 271.683,103.600 271.463 C 104.150 271.352,105.860 270.968,107.400 270.610 C 135.756 264.018,168.786 266.344,192.387 276.594 C 224.624 290.596,262.590 295.052,297.880 288.977 C 301.136 288.416,304.776 287.792,305.968 287.589 C 314.110 286.203,332.562 280.625,341.600 276.817 C 347.371 274.386,354.761 270.955,357.182 269.583 C 358.719 268.712,360.112 268.000,360.279 268.000 C 360.679 268.000,369.580 262.707,372.480 260.743 C 373.735 259.895,374.866 259.200,374.994 259.200 C 375.122 259.200,376.587 258.255,378.249 257.100 C 379.911 255.945,381.569 254.820,381.934 254.600 C 382.298 254.380,383.407 253.570,384.398 252.800 C 388.854 249.338,390.800 248.622,390.800 250.446 C 390.800 252.898,386.725 267.354,384.986 271.068 C 384.660 271.766,384.289 272.936,384.162 273.668 C 384.035 274.401,383.686 275.540,383.387 276.200 C 383.088 276.860,382.294 278.705,381.622 280.300 C 378.040 288.801,374.008 297.355,371.488 301.800 C 368.853 306.447,363.815 314.607,363.211 315.206 C 362.875 315.539,362.420 316.099,362.200 316.451 C 353.992 329.572,336.306 348.828,322.579 359.588 C 315.685 364.991,306.914 371.267,304.121 372.794 C 303.284 373.251,301.700 374.184,300.600 374.868 C 294.819 378.458,281.639 385.124,276.200 387.210 C 275.760 387.378,274.410 387.958,273.200 388.499 C 270.479 389.714,264.579 391.897,263.103 392.235 C 262.499 392.373,262.077 392.601,262.165 392.743 C 262.252 392.884,261.936 393.028,261.462 393.062 C 260.988 393.097,258.710 393.698,256.400 394.399 C 226.074 403.603,191.703 405.323,162.200 399.112 C 159.120 398.464,155.773 397.784,154.762 397.601 C 153.751 397.418,151.951 396.970,150.762 396.606 C 149.573 396.242,146.890 395.499,144.800 394.955 C 137.516 393.059,127.715 389.385,117.000 384.534 C 113.792 383.082,102.984 377.513,102.400 377.012 C 102.070 376.728,101.170 376.180,100.400 375.794 C 99.099 375.142,97.779 374.331,92.600 371.007 C 88.341 368.274,85.348 366.238,84.122 365.240 C 83.420 364.668,81.284 363.030,79.377 361.600 C 77.470 360.170,74.895 358.092,73.655 356.982 C 72.415 355.873,70.234 353.983,68.810 352.782 C 63.969 348.704,51.743 335.981,48.137 331.269 C 47.072 329.877,45.474 327.807,44.586 326.669 C 40.102 320.921,37.600 317.593,37.600 317.378 C 37.600 317.246,36.205 315.023,34.500 312.437 C 31.241 307.493,30.832 306.821,28.152 302.000 C 24.811 295.988,20.000 286.144,20.000 285.319 C 20.000 285.137,19.664 284.360,19.252 283.593 C 15.697 276.960,8.957 255.338,7.159 244.800 C 5.392 234.444,4.412 227.648,4.015 223.000 C 3.790 220.360,3.426 216.875,3.208 215.256 C 2.752 211.876,2.949 199.823,3.542 194.800 C 3.763 192.930,4.154 189.060,4.412 186.200 C 4.670 183.340,5.149 179.470,5.478 177.600 C 5.806 175.730,6.152 173.570,6.246 172.800 C 6.340 172.030,6.522 171.130,6.650 170.800 C 6.902 170.151,7.512 166.320,7.747 163.905 C 7.828 163.083,8.076 162.183,8.299 161.905 C 8.523 161.627,8.798 160.770,8.912 160.000 C 9.159 158.335,11.247 150.630,12.219 147.800 C 14.692 140.601,16.695 135.151,18.468 130.800 C 20.683 125.366,28.067 110.231,29.014 109.184 C 29.336 108.828,29.600 108.368,29.600 108.161 C 29.600 107.955,30.092 107.069,30.694 106.193 C 31.296 105.317,32.910 102.800,34.280 100.600 C 35.650 98.400,37.174 96.085,37.666 95.455 C 38.159 94.825,38.793 93.865,39.075 93.321 C 39.357 92.776,40.446 91.278,41.494 89.991 C 42.542 88.704,43.850 86.991,44.400 86.185 C 44.950 85.379,45.670 84.415,46.000 84.042 C 46.330 83.670,47.649 82.113,48.932 80.583 C 50.214 79.052,52.219 76.720,53.388 75.400 C 55.750 72.732,67.985 60.400,68.269 60.400 C 68.369 60.400,69.924 59.126,71.725 57.568 C 73.526 56.011,75.630 54.194,76.400 53.532 C 77.170 52.869,79.510 51.059,81.600 49.508 C 83.690 47.958,85.490 46.571,85.600 46.426 C 85.911 46.017,93.925 40.800,94.242 40.800 C 94.397 40.800,95.101 40.361,95.805 39.824 C 97.461 38.560,100.465 36.789,105.200 34.283 C 107.290 33.177,109.671 31.851,110.492 31.336 C 111.313 30.821,112.222 30.400,112.512 30.400 C 112.802 30.400,113.211 30.238,113.420 30.041 C 113.629 29.843,115.780 28.831,118.200 27.790 C 120.620 26.750,122.782 25.755,123.005 25.579 C 123.228 25.404,124.488 24.871,125.805 24.395 C 127.122 23.919,128.740 23.296,129.400 23.010 C 131.298 22.189,141.537 18.767,144.400 17.998 C 154.267 15.346,163.088 13.293,166.600 12.831 C 168.140 12.628,171.470 12.164,174.000 11.800 C 185.342 10.166,204.494 9.445,211.671 10.382 " stroke="none" fill="#faf9ef" fill-rule="evenodd"></path><path id="path1" d="M191.800 12.078 C 184.966 12.395,172.731 13.655,167.400 14.590 C 159.912 15.904,155.297 16.875,152.200 17.787 C 150.440 18.305,147.470 19.114,145.600 19.584 C 143.730 20.054,140.760 20.994,139.000 21.673 C 137.240 22.352,134.990 23.143,134.000 23.432 C 130.497 24.454,125.549 26.403,122.931 27.793 C 121.473 28.567,120.027 29.200,119.719 29.200 C 119.411 29.200,118.493 29.560,117.679 30.001 C 116.866 30.441,114.490 31.606,112.400 32.589 C 110.310 33.572,106.890 35.388,104.800 36.625 C 102.710 37.861,100.145 39.326,99.100 39.879 C 98.055 40.431,97.200 41.055,97.200 41.264 C 97.200 41.473,96.255 42.065,95.100 42.579 C 93.945 43.093,92.564 43.983,92.030 44.557 C 91.497 45.131,90.823 45.600,90.533 45.600 C 90.242 45.600,88.198 46.995,85.990 48.700 C 83.782 50.405,81.409 52.108,80.716 52.485 C 80.023 52.862,78.543 54.054,77.428 55.134 C 76.313 56.215,75.102 57.257,74.739 57.449 C 73.147 58.293,58.963 72.072,56.877 74.800 C 56.120 75.790,55.099 76.870,54.608 77.200 C 54.118 77.530,52.820 78.880,51.724 80.200 C 50.628 81.520,49.408 82.867,49.013 83.192 C 48.618 83.518,47.493 84.958,46.513 86.392 C 44.163 89.829,42.284 92.442,39.571 96.042 C 37.564 98.706,35.848 101.489,31.210 109.600 C 30.393 111.030,28.706 113.941,27.462 116.069 C 26.218 118.197,25.200 120.135,25.200 120.375 C 25.200 120.616,24.669 121.754,24.020 122.906 C 23.370 124.058,22.383 126.349,21.826 127.998 C 21.269 129.647,20.649 131.050,20.448 131.117 C 19.717 131.361,12.145 153.621,11.168 158.400 C 10.921 159.610,10.296 162.310,9.779 164.400 C 9.263 166.490,8.726 169.370,8.587 170.800 C 8.448 172.230,8.075 174.343,7.757 175.495 C 7.440 176.648,7.000 179.348,6.780 181.495 C 6.391 185.293,5.995 188.828,5.220 195.400 C 4.134 204.618,5.509 227.463,7.785 238.000 C 8.094 239.430,8.556 241.950,8.812 243.600 C 9.068 245.250,9.907 249.030,10.677 252.000 C 11.447 254.970,12.327 258.522,12.631 259.893 C 12.936 261.265,13.704 263.785,14.338 265.493 C 17.075 272.866,18.400 276.722,18.400 277.316 C 18.400 277.666,18.554 278.048,18.742 278.164 C 18.930 278.280,19.491 279.506,19.989 280.888 C 20.486 282.269,21.120 283.670,21.396 284.000 C 21.673 284.330,22.122 285.320,22.396 286.200 C 22.669 287.080,23.581 289.150,24.424 290.800 C 25.266 292.450,26.266 294.520,26.645 295.400 C 27.024 296.280,27.573 297.283,27.865 297.629 C 28.156 297.975,29.005 299.505,29.750 301.029 C 30.495 302.553,31.756 304.763,32.552 305.940 C 33.349 307.117,34.000 308.297,34.000 308.562 C 34.000 308.827,34.649 309.752,35.441 310.617 C 36.234 311.483,37.154 312.868,37.485 313.696 C 37.816 314.523,38.235 315.200,38.416 315.200 C 38.598 315.200,38.872 315.596,39.025 316.079 C 39.178 316.562,40.156 317.867,41.197 318.979 C 42.238 320.091,43.320 321.450,43.602 322.000 C 43.883 322.550,44.894 323.990,45.848 325.200 C 46.802 326.410,48.860 329.020,50.422 331.000 C 51.983 332.980,54.147 335.451,55.231 336.492 C 56.315 337.533,57.520 338.907,57.909 339.547 C 58.298 340.187,59.379 341.347,60.311 342.125 C 61.242 342.904,62.906 344.527,64.007 345.732 C 65.108 346.937,67.339 348.941,68.965 350.186 C 70.590 351.431,72.010 352.796,72.121 353.220 C 72.232 353.644,72.787 354.167,73.355 354.383 C 73.923 354.599,75.920 356.139,77.793 357.805 C 79.666 359.471,82.954 362.024,85.099 363.477 C 87.245 364.930,90.170 366.963,91.600 367.996 C 93.030 369.028,95.280 370.472,96.600 371.203 C 97.920 371.935,100.710 373.651,102.800 375.016 C 104.890 376.382,107.110 377.619,107.733 377.766 C 108.356 377.912,109.771 378.655,110.878 379.416 C 111.984 380.177,113.134 380.800,113.433 380.800 C 114.122 380.800,118.699 383.113,119.012 383.620 C 119.142 383.829,119.505 384.000,119.820 384.000 C 120.136 384.000,122.690 384.968,125.497 386.152 C 128.304 387.336,133.386 389.242,136.790 390.389 C 140.195 391.535,143.435 392.702,143.990 392.983 C 144.546 393.264,146.112 393.615,147.472 393.763 C 148.832 393.912,150.992 394.455,152.272 394.969 C 153.552 395.484,156.310 396.212,158.400 396.587 C 160.490 396.962,163.370 397.505,164.800 397.793 C 167.570 398.352,170.884 398.847,178.600 399.855 C 185.132 400.709,209.342 401.071,215.400 400.406 C 217.820 400.141,221.420 399.779,223.400 399.602 C 225.380 399.426,227.270 399.180,227.600 399.056 C 227.930 398.931,230.000 398.557,232.200 398.224 C 237.749 397.385,245.761 395.688,248.447 394.784 C 249.683 394.367,251.573 393.839,252.647 393.610 C 253.721 393.380,256.040 392.673,257.800 392.037 C 259.560 391.402,262.080 390.557,263.400 390.159 C 264.720 389.761,265.971 389.293,266.180 389.118 C 266.389 388.943,266.888 388.800,267.290 388.800 C 267.691 388.800,269.320 388.136,270.910 387.325 C 272.499 386.514,274.160 385.794,274.600 385.724 C 275.481 385.586,275.813 385.449,279.600 383.672 C 290.602 378.509,296.394 375.485,299.074 373.503 C 300.188 372.680,301.796 371.690,302.649 371.303 C 304.100 370.645,307.512 368.342,311.531 365.307 C 312.482 364.588,313.427 364.000,313.630 364.000 C 314.031 364.000,315.769 362.663,323.150 356.675 C 325.811 354.516,328.126 352.535,328.294 352.273 C 328.462 352.010,329.230 351.314,330.000 350.726 C 330.770 350.138,332.840 348.206,334.600 346.433 C 336.360 344.659,338.182 342.824,338.649 342.353 C 339.116 341.883,339.978 341.026,340.565 340.449 C 343.615 337.449,349.655 330.423,351.611 327.600 C 352.144 326.830,353.639 324.940,354.933 323.400 C 356.227 321.860,358.069 319.430,359.027 318.000 C 359.984 316.570,361.131 314.950,361.575 314.400 C 362.019 313.850,362.386 313.207,362.391 312.971 C 362.396 312.735,362.935 311.835,363.589 310.971 C 364.243 310.107,364.783 309.244,364.789 309.054 C 364.795 308.863,365.410 307.873,366.156 306.854 C 366.902 305.834,367.799 304.370,368.148 303.600 C 368.498 302.830,369.013 301.840,369.292 301.400 C 369.571 300.960,370.256 299.880,370.814 299.000 C 371.372 298.120,372.082 296.770,372.393 296.000 C 372.703 295.230,374.267 291.854,375.867 288.497 C 379.200 281.507,379.783 280.073,383.061 270.800 C 387.113 259.334,388.362 254.000,386.994 254.000 C 386.243 254.000,382.074 256.326,381.126 257.274 C 380.522 257.878,378.688 259.148,376.335 260.592 C 375.969 260.816,374.317 261.900,372.664 263.000 C 355.247 274.592,323.909 286.895,305.400 289.407 C 304.300 289.557,303.059 289.861,302.643 290.084 C 301.474 290.710,292.558 291.826,284.200 292.392 C 264.776 293.709,263.113 293.709,246.800 292.391 C 233.929 291.351,222.795 289.376,214.200 286.608 C 213.320 286.325,211.520 285.786,210.200 285.410 C 207.724 284.705,200.621 282.084,197.800 280.834 C 194.731 279.475,187.770 276.812,183.711 275.444 C 179.993 274.192,177.776 273.603,167.800 271.225 C 163.896 270.294,159.769 269.696,155.000 269.371 C 153.020 269.236,150.950 269.051,150.400 268.959 C 148.395 268.625,132.408 268.808,128.360 269.211 C 120.165 270.027,114.736 270.842,112.288 271.625 C 110.920 272.062,108.310 272.598,106.490 272.816 C 104.669 273.033,102.419 273.497,101.490 273.846 C 100.560 274.196,98.256 274.894,96.370 275.399 C 94.483 275.904,92.143 276.678,91.170 277.119 C 88.567 278.300,85.345 278.444,84.943 277.397 C 84.713 276.796,85.739 274.184,86.304 273.932 C 86.467 273.859,87.214 273.080,87.964 272.200 C 88.714 271.320,89.759 270.311,90.285 269.959 C 90.810 269.606,92.653 267.935,94.378 266.246 C 96.104 264.557,98.150 262.686,98.926 262.088 C 99.702 261.489,101.369 260.190,102.631 259.200 C 108.008 254.979,113.538 251.067,115.985 249.751 C 116.854 249.283,118.095 248.473,118.743 247.951 C 119.392 247.428,120.795 246.495,121.861 245.878 C 122.928 245.260,124.880 244.115,126.200 243.332 C 127.520 242.550,129.950 241.325,131.600 240.611 C 133.250 239.897,135.901 238.658,137.490 237.857 C 139.080 237.056,140.612 236.400,140.896 236.400 C 141.180 236.400,142.504 235.867,143.839 235.216 C 151.817 231.324,168.475 226.569,181.000 224.610 C 183.200 224.265,185.540 223.888,186.200 223.771 C 195.269 222.164,226.518 222.290,232.800 223.959 C 233.570 224.164,235.280 224.448,236.600 224.591 C 239.585 224.913,247.982 226.813,260.400 229.976 C 269.998 232.421,272.995 232.984,287.000 234.971 C 303.408 237.300,330.477 236.203,346.000 232.581 C 348.310 232.042,351.820 231.259,353.800 230.840 C 355.780 230.422,358.930 229.605,360.800 229.024 C 362.670 228.444,364.578 227.914,365.041 227.846 C 366.020 227.703,368.896 226.757,373.400 225.097 C 375.160 224.448,377.410 223.655,378.400 223.335 C 379.390 223.016,381.043 222.311,382.072 221.769 C 383.102 221.228,385.127 220.340,386.572 219.796 C 394.138 216.948,394.400 216.551,394.400 207.948 C 394.400 198.177,395.352 198.304,380.000 206.026 C 377.171 207.449,369.843 210.400,369.138 210.400 C 368.840 210.400,367.337 210.867,365.798 211.438 C 339.497 221.193,295.505 222.058,265.000 213.419 C 262.855 212.812,262.581 212.719,256.800 210.633 C 254.710 209.880,251.608 208.898,249.906 208.453 C 248.204 208.007,245.954 207.257,244.906 206.785 C 243.858 206.314,241.650 205.694,240.000 205.409 C 238.350 205.123,234.674 204.239,231.832 203.445 C 228.989 202.650,226.256 202.000,225.758 202.000 C 225.260 202.000,224.415 201.834,223.881 201.631 C 222.612 201.148,216.896 200.169,209.627 199.189 C 206.422 198.757,201.910 198.120,199.600 197.773 C 194.632 197.026,172.854 197.163,170.400 197.956 C 169.630 198.205,166.763 198.783,164.028 199.241 C 159.512 199.997,155.782 201.094,147.248 204.176 C 142.354 205.943,140.749 204.400,143.658 200.726 C 145.594 198.283,154.726 189.311,156.758 187.858 C 157.725 187.166,159.345 186.007,160.358 185.281 C 163.193 183.252,166.387 181.079,167.759 180.248 C 168.441 179.834,169.720 179.008,170.600 178.413 C 171.480 177.818,173.010 176.902,174.000 176.378 C 174.990 175.854,177.291 174.565,179.112 173.513 C 180.934 172.461,182.521 171.600,182.639 171.600 C 182.757 171.600,184.551 170.790,186.627 169.800 C 188.702 168.810,192.098 167.190,194.173 166.200 C 196.249 165.210,198.125 164.400,198.343 164.400 C 198.561 164.400,200.148 163.835,201.870 163.145 C 203.591 162.454,206.772 161.382,208.938 160.762 C 211.104 160.142,213.095 159.453,213.362 159.231 C 213.630 159.009,215.818 158.387,218.224 157.849 C 220.631 157.311,224.580 156.429,227.000 155.889 C 247.911 151.224,262.775 151.459,286.000 156.824 C 287.870 157.256,291.532 157.967,294.138 158.404 C 296.743 158.842,299.015 159.286,299.187 159.392 C 299.358 159.498,301.636 159.936,304.249 160.367 C 306.862 160.797,310.170 161.418,311.600 161.746 C 313.030 162.074,315.460 162.456,317.000 162.594 C 318.540 162.733,321.150 163.107,322.800 163.425 C 344.102 167.530,377.555 165.471,387.100 159.467 C 387.842 159.001,387.707 156.517,386.792 153.800 C 386.348 152.480,385.801 150.637,385.578 149.704 C 385.058 147.534,384.260 147.313,379.208 147.938 C 361.347 150.145,346.297 149.988,326.600 147.389 C 323.124 146.930,317.717 145.887,316.200 145.382 C 315.320 145.089,311.900 144.097,308.600 143.177 C 305.300 142.257,302.420 141.363,302.200 141.190 C 301.691 140.791,289.563 136.769,285.600 135.686 C 283.950 135.235,281.520 134.569,280.200 134.206 C 273.656 132.407,262.648 130.124,259.000 129.809 C 257.240 129.657,254.000 129.281,251.800 128.974 C 239.985 127.323,221.490 129.155,210.400 133.075 C 200.599 136.540,200.600 136.540,199.370 135.950 C 197.752 135.175,197.891 134.481,200.200 131.798 C 205.968 125.095,210.924 120.842,220.325 114.530 C 226.702 110.248,227.779 109.612,233.005 107.043 C 235.642 105.746,238.656 104.261,239.703 103.741 C 244.601 101.310,258.189 96.820,266.800 94.786 C 268.450 94.396,271.780 93.772,274.200 93.399 C 276.620 93.026,280.015 92.469,281.744 92.161 C 283.473 91.852,285.562 91.600,286.384 91.600 C 287.207 91.600,288.402 91.431,289.040 91.225 C 290.785 90.661,305.988 90.415,313.333 90.831 C 324.010 91.436,330.022 92.535,342.200 96.105 C 350.120 98.427,359.663 100.097,360.460 99.300 C 361.072 98.688,360.622 97.198,359.309 95.492 C 358.699 94.700,357.330 92.798,356.266 91.265 C 355.203 89.732,354.032 88.146,353.664 87.739 C 353.296 87.333,352.024 85.740,350.836 84.200 C 345.280 76.997,329.673 61.257,322.526 55.650 C 321.386 54.755,320.306 53.793,320.126 53.511 C 319.785 52.976,319.672 52.900,315.800 50.573 C 314.480 49.780,312.860 48.629,312.200 48.017 C 310.549 46.484,304.469 42.400,303.838 42.400 C 303.555 42.400,302.981 42.014,302.562 41.542 C 302.143 41.070,301.080 40.335,300.200 39.910 C 299.320 39.484,297.160 38.257,295.400 37.183 C 292.238 35.254,286.651 32.412,281.600 30.165 C 280.170 29.529,278.037 28.512,276.859 27.904 C 275.682 27.297,274.505 26.800,274.244 26.800 C 273.983 26.800,273.056 26.435,272.185 25.988 C 270.680 25.217,260.557 21.606,255.400 20.000 C 250.441 18.456,237.993 15.654,232.400 14.824 C 229.210 14.350,225.610 13.800,224.400 13.600 C 216.121 12.236,202.309 11.591,191.800 12.078 " stroke="none" fill="#fbd306" fill-rule="evenodd"></path><path id="path2" d="M188.400 7.600 C 188.400 7.820,187.380 8.000,186.133 8.000 C 184.887 8.000,183.977 8.110,184.111 8.245 C 184.486 8.620,192.400 7.963,192.400 7.557 C 192.400 7.361,191.500 7.200,190.400 7.200 C 189.300 7.200,188.400 7.380,188.400 7.600 M208.400 7.540 C 208.400 7.907,216.387 8.546,216.727 8.206 C 216.841 8.093,216.194 8.000,215.290 8.000 C 214.387 8.000,213.536 7.820,213.400 7.600 C 213.100 7.115,208.400 7.059,208.400 7.540 M222.000 8.357 C 222.000 8.554,222.285 8.824,222.633 8.957 C 223.611 9.333,223.708 9.251,223.057 8.600 C 222.377 7.920,222.000 7.833,222.000 8.357 M227.600 9.192 C 227.600 9.690,229.305 10.131,230.268 9.882 C 230.683 9.775,230.437 9.673,229.700 9.646 C 228.985 9.621,228.400 9.420,228.400 9.200 C 228.400 8.980,228.220 8.800,228.000 8.800 C 227.780 8.800,227.600 8.977,227.600 9.192 M184.000 10.622 C 181.030 10.905,176.530 11.435,174.000 11.800 C 171.470 12.164,168.140 12.628,166.600 12.831 C 163.088 13.293,154.267 15.346,144.400 17.998 C 141.537 18.767,131.298 22.189,129.400 23.010 C 128.740 23.296,127.122 23.919,125.805 24.395 C 124.488 24.871,123.228 25.404,123.005 25.579 C 122.782 25.755,120.620 26.750,118.200 27.790 C 115.780 28.831,113.629 29.843,113.420 30.041 C 113.211 30.238,112.802 30.400,112.512 30.400 C 112.222 30.400,111.313 30.821,110.492 31.336 C 109.671 31.851,107.290 33.177,105.200 34.283 C 100.465 36.789,97.461 38.560,95.805 39.824 C 95.101 40.361,94.397 40.800,94.242 40.800 C 93.925 40.800,85.911 46.017,85.600 46.426 C 85.490 46.571,83.690 47.958,81.600 49.508 C 79.510 51.059,77.170 52.869,76.400 53.532 C 75.630 54.194,73.526 56.011,71.725 57.568 C 69.924 59.126,68.369 60.400,68.269 60.400 C 67.985 60.400,55.750 72.732,53.388 75.400 C 52.219 76.720,50.214 79.052,48.932 80.583 C 47.649 82.113,46.330 83.670,46.000 84.042 C 45.670 84.415,44.950 85.379,44.400 86.185 C 43.850 86.991,42.542 88.704,41.494 89.991 C 40.446 91.278,39.357 92.776,39.075 93.321 C 38.793 93.865,38.159 94.825,37.666 95.455 C 37.174 96.085,35.650 98.400,34.280 100.600 C 32.910 102.800,31.296 105.317,30.694 106.193 C 30.092 107.069,29.600 107.955,29.600 108.161 C 29.600 108.368,29.336 108.828,29.014 109.184 C 28.067 110.231,20.683 125.366,18.468 130.800 C 16.695 135.151,14.692 140.601,12.219 147.800 C 11.247 150.630,9.159 158.335,8.912 160.000 C 8.798 160.770,8.523 161.627,8.299 161.905 C 8.076 162.183,7.828 163.083,7.747 163.905 C 7.512 166.320,6.902 170.151,6.650 170.800 C 6.522 171.130,6.340 172.030,6.246 172.800 C 6.152 173.570,5.806 175.730,5.478 177.600 C 5.149 179.470,4.670 183.340,4.412 186.200 C 4.154 189.060,3.763 192.930,3.542 194.800 C 2.949 199.823,2.752 211.876,3.208 215.256 C 3.426 216.875,3.790 220.360,4.015 223.000 C 4.412 227.648,5.392 234.444,7.159 244.800 C 8.957 255.338,15.697 276.960,19.252 283.593 C 19.664 284.360,20.000 285.137,20.000 285.319 C 20.000 286.144,24.811 295.988,28.152 302.000 C 30.832 306.821,31.241 307.493,34.500 312.437 C 36.205 315.023,37.600 317.246,37.600 317.378 C 37.600 317.593,40.102 320.921,44.586 326.669 C 45.474 327.807,47.072 329.877,48.137 331.269 C 51.743 335.981,63.969 348.704,68.810 352.782 C 70.234 353.983,72.415 355.873,73.655 356.982 C 74.895 358.092,77.470 360.170,79.377 361.600 C 81.284 363.030,83.420 364.668,84.122 365.240 C 85.348 366.238,88.341 368.274,92.600 371.007 C 97.779 374.331,99.099 375.142,100.400 375.794 C 101.170 376.180,102.070 376.728,102.400 377.012 C 102.984 377.513,113.792 383.082,117.000 384.534 C 127.715 389.385,137.516 393.059,144.800 394.955 C 146.890 395.499,149.573 396.242,150.762 396.606 C 151.951 396.970,153.751 397.418,154.762 397.601 C 155.773 397.784,159.120 398.464,162.200 399.112 C 189.509 404.861,223.635 403.666,251.000 396.004 C 259.693 393.570,268.484 390.597,273.400 388.430 C 274.500 387.945,275.760 387.403,276.200 387.226 C 282.607 384.641,294.838 378.446,300.600 374.868 C 301.700 374.184,303.284 373.251,304.121 372.794 C 306.914 371.267,315.685 364.991,322.579 359.588 C 336.306 348.828,353.992 329.572,362.200 316.451 C 362.420 316.099,362.875 315.539,363.211 315.206 C 363.815 314.607,368.853 306.447,371.488 301.800 C 374.008 297.355,378.040 288.801,381.622 280.300 C 382.294 278.705,383.088 276.860,383.387 276.200 C 383.686 275.540,384.035 274.401,384.162 273.668 C 384.289 272.936,384.660 271.766,384.986 271.068 C 386.725 267.354,390.800 252.898,390.800 250.446 C 390.800 248.622,388.854 249.338,384.398 252.800 C 383.407 253.570,382.298 254.380,381.934 254.600 C 381.569 254.820,379.911 255.945,378.249 257.100 C 376.587 258.255,375.122 259.200,374.994 259.200 C 374.866 259.200,373.735 259.895,372.480 260.743 C 369.580 262.707,360.679 268.000,360.279 268.000 C 360.112 268.000,358.719 268.712,357.182 269.583 C 354.761 270.955,347.371 274.386,341.600 276.817 C 332.562 280.625,314.110 286.203,305.968 287.589 C 304.776 287.792,301.136 288.416,297.880 288.977 C 262.590 295.052,224.624 290.596,192.387 276.594 C 168.786 266.344,135.756 264.018,107.400 270.610 C 105.860 270.968,104.150 271.352,103.600 271.463 C 102.511 271.683,97.599 273.134,92.707 274.682 C 88.341 276.064,87.920 275.872,89.889 273.400 C 92.070 270.662,98.244 264.991,102.692 261.641 C 103.744 260.848,105.863 259.185,107.402 257.945 C 116.340 250.742,129.667 243.143,144.881 236.577 C 166.322 227.322,202.586 221.943,224.613 224.750 C 226.586 225.001,229.730 225.402,231.600 225.640 C 237.143 226.346,244.112 227.749,250.400 229.423 C 262.383 232.613,268.469 233.998,275.600 235.157 C 315.202 241.593,356.220 236.258,390.600 220.199 C 396.257 217.557,396.177 217.709,396.318 209.268 C 396.553 195.160,396.593 195.194,386.400 200.760 C 384.385 201.860,382.001 202.991,376.000 205.696 C 371.638 207.662,359.770 211.439,353.600 212.826 C 345.869 214.563,341.831 215.331,335.000 216.362 C 328.797 217.298,312.420 217.951,304.400 217.581 C 285.218 216.698,276.153 215.070,259.200 209.466 C 254.250 207.829,248.760 206.091,247.000 205.602 C 245.240 205.114,242.507 204.295,240.927 203.783 C 211.387 194.204,172.166 192.973,150.600 200.948 C 149.060 201.517,147.293 201.987,146.673 201.992 L 145.546 202.000 146.447 200.700 C 148.800 197.308,163.969 184.000,165.483 184.000 C 165.614 184.000,166.459 183.451,167.361 182.780 C 183.087 171.073,217.595 157.933,238.716 155.609 C 240.943 155.364,243.809 154.993,245.083 154.784 C 253.660 153.379,267.011 154.659,286.800 158.782 C 295.749 160.646,304.796 162.367,312.000 163.577 C 314.750 164.038,318.620 164.700,320.600 165.047 C 322.580 165.394,325.820 165.834,327.800 166.024 C 329.780 166.215,333.920 166.642,337.000 166.974 C 344.368 167.767,356.806 167.766,363.200 166.972 C 365.950 166.631,369.460 166.196,371.000 166.005 C 375.849 165.406,386.280 162.425,388.859 160.902 C 390.221 160.097,390.250 159.611,389.183 155.400 C 386.668 145.477,386.383 144.932,383.906 145.311 C 355.015 149.735,326.059 147.725,304.178 139.777 C 284.763 132.724,263.171 127.658,249.600 126.971 C 247.290 126.854,244.680 126.690,243.800 126.606 C 234.981 125.763,217.327 128.554,206.108 132.566 C 204.517 133.135,203.032 133.600,202.808 133.600 C 201.198 133.600,204.549 129.593,211.000 123.805 C 212.745 122.239,221.831 115.518,222.800 115.076 C 223.130 114.926,224.480 114.105,225.800 113.252 C 229.207 111.052,236.757 107.176,241.091 105.403 C 243.222 104.532,244.675 103.721,244.529 103.485 C 244.386 103.253,244.473 103.198,244.731 103.358 C 244.981 103.512,246.944 102.976,249.093 102.166 C 254.357 100.182,258.217 98.962,263.000 97.770 C 265.200 97.221,267.990 96.518,269.200 96.208 C 271.280 95.674,277.502 94.581,283.867 93.631 C 295.250 91.932,312.975 91.752,321.520 93.248 C 322.774 93.467,324.880 93.802,326.200 93.992 C 327.520 94.182,330.220 94.773,332.200 95.306 C 334.180 95.839,337.960 96.850,340.600 97.553 C 343.240 98.256,345.978 99.014,346.685 99.236 C 351.037 100.607,362.133 101.984,363.767 101.357 C 364.642 101.022,364.559 99.510,363.600 98.291 C 363.160 97.731,362.800 97.163,362.800 97.029 C 362.800 96.894,361.630 95.267,360.200 93.415 C 358.770 91.562,357.600 89.931,357.600 89.791 C 357.600 89.479,355.659 87.034,351.414 82.000 C 349.652 79.910,347.938 77.859,347.605 77.443 C 343.171 71.895,330.947 60.087,323.476 54.133 C 322.418 53.290,320.689 51.835,319.634 50.900 C 318.580 49.965,317.586 49.200,317.426 49.200 C 317.071 49.200,313.455 46.324,313.263 45.890 C 313.188 45.720,312.558 45.315,311.863 44.991 C 311.169 44.666,308.865 43.276,306.745 41.901 C 301.833 38.714,299.634 37.359,296.400 35.526 C 292.607 33.377,280.560 27.400,278.000 26.398 C 276.790 25.924,274.720 25.038,273.400 24.428 C 269.950 22.834,252.726 17.079,250.200 16.675 C 249.540 16.570,247.200 16.033,245.000 15.482 C 239.220 14.036,234.651 13.039,234.261 13.139 C 234.075 13.187,232.365 12.963,230.461 12.642 C 223.960 11.546,221.400 11.206,218.000 10.985 C 216.130 10.864,213.282 10.593,211.671 10.382 C 207.609 9.852,190.523 10.000,184.000 10.622 M162.800 10.800 C 162.800 11.020,162.500 11.200,162.133 11.200 C 161.767 11.200,161.573 11.306,161.703 11.437 C 162.037 11.770,163.600 11.223,163.600 10.773 C 163.600 10.568,163.420 10.400,163.200 10.400 C 162.980 10.400,162.800 10.580,162.800 10.800 M237.200 10.792 C 237.200 11.256,239.125 11.808,239.485 11.448 C 239.622 11.312,239.333 11.200,238.843 11.200 C 238.351 11.200,238.063 11.021,238.200 10.800 C 238.336 10.580,238.167 10.400,237.824 10.400 C 237.481 10.400,237.200 10.577,237.200 10.792 M158.000 11.800 C 157.722 12.135,157.679 12.400,157.902 12.400 C 158.122 12.400,158.526 12.130,158.800 11.800 C 159.078 11.465,159.121 11.200,158.898 11.200 C 158.678 11.200,158.274 11.470,158.000 11.800 M241.200 11.600 C 240.681 11.935,240.690 11.989,241.267 11.994 C 241.634 11.997,242.264 12.125,242.667 12.278 C 243.354 12.538,243.357 12.512,242.729 11.878 C 241.948 11.090,241.980 11.096,241.200 11.600 M215.600 12.614 C 219.230 12.957,223.190 13.401,224.400 13.600 C 225.610 13.800,229.210 14.350,232.400 14.824 C 237.993 15.654,250.441 18.456,255.400 20.000 C 260.557 21.606,270.680 25.217,272.185 25.988 C 273.056 26.435,273.983 26.800,274.244 26.800 C 274.505 26.800,275.682 27.297,276.859 27.904 C 278.037 28.512,280.170 29.529,281.600 30.165 C 286.651 32.412,292.238 35.254,295.400 37.183 C 297.160 38.257,299.320 39.484,300.200 39.910 C 301.080 40.335,302.143 41.070,302.562 41.542 C 302.981 42.014,303.555 42.400,303.838 42.400 C 304.469 42.400,310.549 46.484,312.200 48.017 C 312.860 48.629,314.480 49.780,315.800 50.573 C 319.672 52.900,319.785 52.976,320.126 53.511 C 320.306 53.793,321.386 54.755,322.526 55.650 C 329.673 61.257,345.280 76.997,350.836 84.200 C 352.024 85.740,353.296 87.333,353.664 87.739 C 354.032 88.146,355.203 89.732,356.266 91.265 C 357.330 92.798,358.699 94.700,359.309 95.492 C 360.622 97.198,361.072 98.688,360.460 99.300 C 359.663 100.097,350.120 98.427,342.200 96.105 C 330.022 92.535,324.010 91.436,313.333 90.831 C 305.988 90.415,290.785 90.661,289.040 91.225 C 288.402 91.431,287.207 91.600,286.384 91.600 C 285.562 91.600,283.473 91.852,281.744 92.161 C 280.015 92.469,276.620 93.026,274.200 93.399 C 269.706 94.092,265.520 94.999,261.600 96.129 C 254.351 98.219,251.658 99.082,246.903 100.839 C 243.989 101.916,240.749 103.222,239.703 103.741 C 238.656 104.261,235.642 105.746,233.005 107.043 C 227.779 109.612,226.702 110.248,220.325 114.530 C 210.924 120.842,205.968 125.095,200.200 131.798 C 197.891 134.481,197.752 135.175,199.370 135.950 C 200.600 136.540,200.599 136.540,210.400 133.075 C 221.490 129.155,239.985 127.323,251.800 128.974 C 254.000 129.281,257.240 129.657,259.000 129.809 C 262.648 130.124,273.656 132.407,280.200 134.206 C 281.520 134.569,283.950 135.235,285.600 135.686 C 289.563 136.769,301.691 140.791,302.200 141.190 C 302.420 141.363,305.300 142.257,308.600 143.177 C 311.900 144.097,315.320 145.089,316.200 145.382 C 317.717 145.887,323.124 146.930,326.600 147.389 C 346.297 149.988,361.347 150.145,379.208 147.938 C 384.260 147.313,385.058 147.534,385.578 149.704 C 385.801 150.637,386.348 152.480,386.792 153.800 C 387.707 156.517,387.842 159.001,387.100 159.467 C 377.555 165.471,344.102 167.530,322.800 163.425 C 321.150 163.107,318.540 162.733,317.000 162.594 C 315.460 162.456,313.030 162.074,311.600 161.746 C 310.170 161.418,306.862 160.797,304.249 160.367 C 301.636 159.936,299.358 159.498,299.187 159.392 C 299.015 159.286,296.743 158.842,294.138 158.404 C 291.532 157.967,287.870 157.256,286.000 156.824 C 262.775 151.459,247.911 151.224,227.000 155.889 C 224.580 156.429,220.631 157.311,218.224 157.849 C 215.818 158.387,213.630 159.009,213.362 159.231 C 213.095 159.453,211.104 160.142,208.938 160.762 C 206.772 161.382,203.591 162.454,201.870 163.145 C 200.148 163.835,198.561 164.400,198.343 164.400 C 198.125 164.400,196.249 165.210,194.173 166.200 C 192.098 167.190,188.702 168.810,186.627 169.800 C 184.551 170.790,182.757 171.600,182.639 171.600 C 182.521 171.600,180.934 172.461,179.112 173.513 C 177.291 174.565,174.990 175.854,174.000 176.378 C 173.010 176.902,171.480 177.818,170.600 178.413 C 169.720 179.008,168.441 179.834,167.759 180.248 C 166.387 181.079,163.193 183.252,160.358 185.281 C 159.345 186.007,157.725 187.166,156.758 187.858 C 154.726 189.311,145.594 198.283,143.658 200.726 C 140.749 204.400,142.354 205.943,147.248 204.176 C 155.782 201.094,159.512 199.997,164.028 199.241 C 166.763 198.783,169.630 198.205,170.400 197.956 C 172.854 197.163,194.632 197.026,199.600 197.773 C 201.910 198.120,206.422 198.757,209.627 199.189 C 216.896 200.169,222.612 201.148,223.881 201.631 C 224.415 201.834,225.260 202.000,225.758 202.000 C 226.256 202.000,228.989 202.650,231.832 203.445 C 234.674 204.239,238.350 205.123,240.000 205.409 C 241.650 205.694,243.858 206.314,244.906 206.785 C 245.954 207.257,248.204 208.007,249.906 208.453 C 251.608 208.898,254.710 209.880,256.800 210.633 C 258.890 211.387,261.140 212.195,261.800 212.429 C 288.852 221.996,338.609 221.522,365.798 211.438 C 367.337 210.867,368.840 210.400,369.138 210.400 C 369.843 210.400,377.171 207.449,380.000 206.026 C 395.352 198.304,394.400 198.177,394.400 207.948 C 394.400 216.551,394.138 216.948,386.572 219.796 C 385.127 220.340,383.102 221.228,382.072 221.769 C 381.043 222.311,379.390 223.016,378.400 223.335 C 377.410 223.655,375.160 224.452,373.400 225.106 C 367.798 227.186,359.245 229.688,353.800 230.840 C 351.820 231.258,348.310 232.042,346.000 232.581 C 330.477 236.203,303.408 237.300,287.000 234.971 C 272.995 232.984,269.998 232.421,260.400 229.976 C 247.982 226.813,239.585 224.913,236.600 224.591 C 235.280 224.448,233.570 224.164,232.800 223.959 C 226.518 222.290,195.269 222.164,186.200 223.771 C 185.540 223.888,183.200 224.265,181.000 224.610 C 168.475 226.569,151.817 231.324,143.839 235.216 C 142.504 235.867,141.180 236.400,140.896 236.400 C 140.612 236.400,139.080 237.056,137.490 237.857 C 135.901 238.658,133.250 239.897,131.600 240.611 C 129.950 241.325,127.520 242.550,126.200 243.332 C 124.880 244.115,122.928 245.260,121.861 245.878 C 120.795 246.495,119.392 247.428,118.743 247.951 C 118.095 248.473,116.854 249.283,115.985 249.751 C 113.538 251.067,108.008 254.979,102.631 259.200 C 101.369 260.190,99.702 261.489,98.926 262.088 C 98.150 262.686,96.104 264.557,94.378 266.246 C 92.653 267.935,90.810 269.606,90.285 269.959 C 89.759 270.311,88.714 271.320,87.964 272.200 C 87.214 273.080,86.467 273.859,86.304 273.932 C 85.739 274.184,84.713 276.796,84.943 277.397 C 85.345 278.444,88.567 278.300,91.170 277.119 C 92.143 276.678,94.483 275.904,96.370 275.399 C 98.256 274.894,100.560 274.196,101.490 273.846 C 102.419 273.497,104.669 273.033,106.490 272.816 C 108.310 272.598,110.920 272.062,112.288 271.625 C 114.736 270.842,120.165 270.027,128.360 269.211 C 132.408 268.808,148.395 268.625,150.400 268.959 C 150.950 269.051,153.020 269.236,155.000 269.371 C 159.769 269.696,163.896 270.294,167.800 271.225 C 177.776 273.603,179.993 274.192,183.711 275.444 C 187.770 276.812,194.731 279.475,197.800 280.834 C 200.621 282.084,207.724 284.705,210.200 285.410 C 211.520 285.786,213.320 286.325,214.200 286.608 C 222.795 289.376,233.929 291.351,246.800 292.391 C 263.113 293.709,264.776 293.709,284.200 292.392 C 292.558 291.826,301.474 290.710,302.643 290.084 C 303.059 289.861,304.300 289.557,305.400 289.407 C 323.909 286.895,355.247 274.592,372.664 263.000 C 374.317 261.900,375.969 260.816,376.335 260.592 C 378.688 259.148,380.522 257.878,381.126 257.274 C 382.074 256.326,386.243 254.000,386.994 254.000 C 388.362 254.000,387.113 259.334,383.061 270.800 C 379.783 280.073,379.200 281.507,375.867 288.497 C 374.267 291.854,372.703 295.230,372.393 296.000 C 372.082 296.770,371.372 298.120,370.814 299.000 C 370.256 299.880,369.571 300.960,369.292 301.400 C 369.013 301.840,368.498 302.830,368.148 303.600 C 367.799 304.370,366.902 305.834,366.156 306.854 C 365.410 307.873,364.795 308.863,364.789 309.054 C 364.783 309.244,364.243 310.107,363.589 310.971 C 362.935 311.835,362.396 312.735,362.391 312.971 C 362.386 313.207,362.019 313.850,361.575 314.400 C 361.131 314.950,359.984 316.570,359.027 318.000 C 358.069 319.430,356.227 321.860,354.933 323.400 C 353.639 324.940,352.144 326.830,351.611 327.600 C 349.655 330.423,343.615 337.449,340.565 340.449 C 339.978 341.026,339.116 341.883,338.649 342.353 C 338.182 342.824,336.360 344.659,334.600 346.433 C 332.840 348.206,330.770 350.138,330.000 350.726 C 329.230 351.314,328.462 352.010,328.294 352.273 C 328.126 352.535,325.811 354.516,323.150 356.675 C 315.769 362.663,314.031 364.000,313.630 364.000 C 313.427 364.000,312.482 364.588,311.531 365.307 C 307.512 368.342,304.100 370.645,302.649 371.303 C 301.796 371.690,300.188 372.680,299.074 373.503 C 296.391 375.487,290.167 378.734,279.600 383.665 C 278.170 384.332,276.687 385.041,276.305 385.239 C 275.923 385.438,275.374 385.600,275.084 385.600 C 274.795 385.600,273.069 386.320,271.249 387.200 C 269.429 388.080,267.630 388.800,267.250 388.800 C 266.871 388.800,266.389 388.943,266.180 389.118 C 265.971 389.293,264.720 389.761,263.400 390.159 C 262.080 390.557,259.560 391.402,257.800 392.037 C 256.040 392.673,253.721 393.380,252.647 393.610 C 251.573 393.839,249.683 394.367,248.447 394.784 C 245.761 395.688,237.749 397.385,232.200 398.224 C 230.000 398.557,227.930 398.931,227.600 399.056 C 227.270 399.180,225.380 399.426,223.400 399.602 C 221.420 399.779,217.820 400.141,215.400 400.406 C 209.342 401.071,185.132 400.709,178.600 399.855 C 170.884 398.847,167.570 398.352,164.800 397.793 C 163.370 397.505,160.490 396.962,158.400 396.587 C 156.310 396.212,153.552 395.484,152.272 394.969 C 150.992 394.455,148.832 393.912,147.472 393.763 C 146.112 393.615,144.546 393.264,143.990 392.983 C 143.435 392.702,140.195 391.535,136.790 390.389 C 133.386 389.242,128.304 387.336,125.497 386.152 C 122.690 384.968,120.136 384.000,119.820 384.000 C 119.505 384.000,119.142 383.829,119.012 383.620 C 118.699 383.113,114.122 380.800,113.433 380.800 C 113.134 380.800,111.984 380.177,110.878 379.416 C 109.771 378.655,108.356 377.912,107.733 377.766 C 107.110 377.619,104.890 376.382,102.800 375.016 C 100.710 373.651,97.920 371.935,96.600 371.203 C 95.280 370.472,93.030 369.028,91.600 367.996 C 90.170 366.963,87.245 364.930,85.099 363.477 C 82.954 362.024,79.666 359.471,77.793 357.805 C 75.920 356.139,73.923 354.599,73.355 354.383 C 72.787 354.167,72.232 353.644,72.121 353.220 C 72.010 352.796,70.590 351.431,68.965 350.186 C 67.339 348.941,65.108 346.937,64.007 345.732 C 62.906 344.527,61.242 342.904,60.311 342.125 C 59.379 341.347,58.298 340.187,57.909 339.547 C 57.520 338.907,56.315 337.533,55.231 336.492 C 54.147 335.451,51.983 332.980,50.422 331.000 C 48.860 329.020,46.802 326.410,45.848 325.200 C 44.894 323.990,43.883 322.550,43.602 322.000 C 43.320 321.450,42.238 320.091,41.197 318.979 C 40.156 317.867,39.178 316.562,39.025 316.079 C 38.872 315.596,38.598 315.200,38.416 315.200 C 38.235 315.200,37.816 314.523,37.485 313.696 C 37.154 312.868,36.234 311.483,35.441 310.617 C 34.649 309.752,34.000 308.827,34.000 308.562 C 34.000 308.297,33.349 307.117,32.552 305.940 C 31.756 304.763,30.495 302.553,29.750 301.029 C 29.005 299.505,28.156 297.975,27.865 297.629 C 27.573 297.283,27.024 296.280,26.645 295.400 C 26.266 294.520,25.266 292.450,24.424 290.800 C 23.581 289.150,22.669 287.080,22.396 286.200 C 22.122 285.320,21.673 284.330,21.396 284.000 C 21.120 283.670,20.486 282.269,19.989 280.888 C 19.491 279.506,18.930 278.280,18.742 278.164 C 18.554 278.048,18.400 277.666,18.400 277.316 C 18.400 276.722,17.075 272.866,14.338 265.493 C 13.704 263.785,12.936 261.265,12.631 259.893 C 12.327 258.522,11.447 254.970,10.677 252.000 C 9.907 249.030,9.068 245.250,8.812 243.600 C 8.556 241.950,8.094 239.430,7.785 238.000 C 5.509 227.463,4.134 204.618,5.220 195.400 C 5.995 188.828,6.391 185.293,6.780 181.495 C 7.000 179.348,7.440 176.648,7.757 175.495 C 8.075 174.343,8.448 172.230,8.587 170.800 C 8.726 169.370,9.263 166.490,9.779 164.400 C 10.296 162.310,10.921 159.610,11.168 158.400 C 12.145 153.621,19.717 131.361,20.448 131.117 C 20.649 131.050,21.269 129.647,21.826 127.998 C 22.383 126.349,23.370 124.058,24.020 122.906 C 24.669 121.754,25.200 120.616,25.200 120.375 C 25.200 120.135,26.218 118.197,27.462 116.069 C 28.706 113.941,30.393 111.030,31.210 109.600 C 35.848 101.489,37.564 98.706,39.571 96.042 C 42.284 92.442,44.163 89.829,46.513 86.392 C 47.493 84.958,48.618 83.518,49.013 83.192 C 49.408 82.867,50.628 81.520,51.724 80.200 C 52.820 78.880,54.118 77.530,54.608 77.200 C 55.099 76.870,56.120 75.790,56.877 74.800 C 58.963 72.072,73.147 58.293,74.739 57.449 C 75.102 57.257,76.313 56.215,77.428 55.134 C 78.543 54.054,80.023 52.862,80.716 52.485 C 81.409 52.108,83.782 50.405,85.990 48.700 C 88.198 46.995,90.242 45.600,90.533 45.600 C 90.823 45.600,91.497 45.131,92.030 44.557 C 92.564 43.983,93.945 43.093,95.100 42.579 C 96.255 42.065,97.200 41.473,97.200 41.264 C 97.200 41.055,98.055 40.431,99.100 39.879 C 100.145 39.326,102.710 37.861,104.800 36.625 C 106.890 35.388,110.310 33.572,112.400 32.589 C 114.490 31.606,116.866 30.441,117.679 30.001 C 118.493 29.560,119.411 29.200,119.719 29.200 C 120.027 29.200,121.473 28.567,122.931 27.793 C 125.549 26.403,130.497 24.454,134.000 23.432 C 134.990 23.143,137.240 22.352,139.000 21.673 C 140.760 20.994,143.730 20.054,145.600 19.584 C 147.470 19.114,150.440 18.305,152.200 17.787 C 168.294 13.047,196.137 10.775,215.600 12.614 M155.200 12.400 C 155.200 12.620,154.900 12.800,154.533 12.800 C 154.167 12.800,153.958 12.891,154.069 13.003 C 154.181 13.114,154.855 13.089,155.568 12.946 C 156.479 12.764,156.706 12.587,156.332 12.350 C 155.617 11.896,155.200 11.915,155.200 12.400 M248.856 13.165 C 248.450 13.416,248.488 13.548,249.024 13.754 C 249.856 14.073,250.055 13.936,249.668 13.310 C 249.501 13.039,249.159 12.978,248.856 13.165 M137.024 17.813 C 136.036 18.560,136.685 18.552,138.000 17.800 C 138.580 17.468,138.748 17.228,138.400 17.227 C 138.070 17.226,137.451 17.490,137.024 17.813 M132.514 18.941 C 132.561 19.193,132.202 19.386,131.716 19.370 C 131.230 19.353,130.740 19.578,130.629 19.870 C 130.363 20.562,130.680 20.524,132.541 19.644 C 133.868 19.016,133.967 18.885,133.255 18.698 C 132.753 18.567,132.461 18.663,132.514 18.941 M268.320 19.655 C 268.981 20.257,270.400 20.443,270.400 19.927 C 270.400 19.610,269.930 19.400,269.220 19.400 C 268.571 19.400,268.166 19.515,268.320 19.655 M126.000 21.333 C 126.000 21.778,125.667 22.000,125.000 22.000 C 124.450 22.000,124.000 22.180,124.000 22.400 C 124.000 22.620,123.717 22.800,123.371 22.800 C 123.026 22.800,122.473 23.070,122.143 23.400 C 121.330 24.213,121.701 24.154,123.400 23.200 C 124.183 22.760,125.095 22.400,125.425 22.400 C 126.068 22.400,126.663 21.330,126.249 20.916 C 126.112 20.779,126.000 20.967,126.000 21.333 M275.361 22.287 C 275.779 22.395,276.730 22.824,277.473 23.241 C 279.102 24.156,279.461 24.204,278.657 23.400 C 278.327 23.070,277.774 22.800,277.429 22.800 C 277.083 22.800,276.800 22.620,276.800 22.400 C 276.800 22.180,276.305 22.021,275.700 22.046 C 274.916 22.079,274.818 22.149,275.361 22.287 M118.400 24.800 C 118.400 25.020,118.040 25.200,117.600 25.200 C 117.160 25.200,116.800 25.344,116.800 25.520 C 116.800 25.695,116.157 26.072,115.370 26.356 C 114.584 26.641,114.025 26.959,114.130 27.063 C 114.234 27.167,115.642 26.616,117.260 25.838 C 119.101 24.952,119.864 24.419,119.300 24.412 C 118.805 24.405,118.400 24.580,118.400 24.800 M281.804 24.806 C 282.021 25.158,284.573 26.400,285.077 26.400 C 285.176 26.400,284.987 26.130,284.657 25.800 C 284.327 25.470,283.684 25.200,283.229 25.200 C 282.773 25.200,282.400 25.020,282.400 24.800 C 282.400 24.580,282.209 24.400,281.976 24.400 C 281.743 24.400,281.666 24.583,281.804 24.806 M288.800 28.194 C 288.800 28.347,292.578 30.439,294.100 31.131 C 294.265 31.206,294.291 30.982,294.157 30.633 C 294.024 30.285,293.653 30.000,293.334 30.000 C 293.015 30.000,291.948 29.550,290.963 29.000 C 289.131 27.977,288.800 27.854,288.800 28.194 M106.800 30.400 C 106.800 30.620,106.440 30.800,106.000 30.800 C 105.560 30.800,105.200 30.974,105.200 31.187 C 105.200 31.594,105.925 31.393,107.600 30.524 C 108.580 30.015,108.582 30.005,107.700 30.002 C 107.205 30.001,106.800 30.180,106.800 30.400 M298.000 33.220 C 299.387 34.161,300.178 34.435,299.200 33.636 C 298.650 33.186,298.020 32.817,297.800 32.815 C 297.580 32.813,297.670 32.996,298.000 33.220 M98.000 35.500 C 98.000 35.904,98.188 35.928,98.800 35.600 C 99.240 35.365,99.600 35.127,99.600 35.072 C 99.600 35.017,99.240 34.971,98.800 34.971 C 98.360 34.971,98.000 35.209,98.000 35.500 M302.000 35.586 C 302.550 36.024,303.148 36.386,303.329 36.391 C 303.860 36.405,302.672 35.381,301.800 35.072 C 301.163 34.847,301.204 34.952,302.000 35.586 M304.579 35.966 C 304.703 36.167,304.627 36.392,304.409 36.466 C 304.191 36.540,305.267 37.463,306.800 38.517 C 308.334 39.572,309.482 40.157,309.351 39.817 C 309.221 39.478,308.898 39.200,308.633 39.200 C 308.368 39.200,307.764 38.840,307.292 38.400 C 306.820 37.960,306.265 37.600,306.060 37.600 C 305.855 37.600,305.574 37.150,305.436 36.600 C 305.298 36.050,304.998 35.600,304.769 35.600 C 304.540 35.600,304.455 35.765,304.579 35.966 M94.818 37.492 C 94.498 37.618,93.879 38.054,93.443 38.461 C 93.006 38.867,92.413 39.200,92.125 39.200 C 91.836 39.200,91.600 39.338,91.600 39.506 C 91.600 39.674,90.888 40.251,90.017 40.789 C 89.147 41.327,88.502 41.835,88.585 41.918 C 88.667 42.001,90.145 41.128,91.867 39.980 C 95.775 37.374,96.351 36.889,94.818 37.492 M311.038 41.133 C 312.192 42.211,314.400 43.312,314.400 42.810 C 314.400 42.585,314.130 42.400,313.800 42.400 C 313.470 42.400,312.871 42.071,312.469 41.669 C 312.068 41.268,311.393 40.807,310.969 40.645 C 310.265 40.375,310.270 40.416,311.038 41.133 M84.562 44.462 L 83.800 45.324 84.900 44.616 C 86.034 43.886,86.249 43.600,85.662 43.600 C 85.476 43.600,84.981 43.988,84.562 44.462 M317.200 45.349 C 317.200 45.435,317.830 45.986,318.600 46.573 C 319.370 47.160,319.998 47.497,319.995 47.320 C 319.992 47.144,319.362 46.593,318.595 46.096 C 317.828 45.599,317.200 45.263,317.200 45.349 M79.604 47.633 C 79.606 47.945,79.021 48.712,78.304 49.338 L 77.000 50.476 78.332 49.588 C 79.686 48.685,80.300 47.766,79.849 47.316 C 79.712 47.179,79.602 47.322,79.604 47.633 M322.000 49.167 C 322.963 49.952,323.600 50.208,323.600 49.810 C 323.600 49.706,323.015 49.335,322.300 48.986 L 321.000 48.352 322.000 49.167 M325.600 51.733 C 325.600 51.806,326.301 52.430,327.159 53.119 C 328.401 54.117,328.678 54.219,328.521 53.620 C 328.413 53.206,327.891 52.759,327.362 52.626 C 326.833 52.493,326.400 52.208,326.400 51.992 C 326.400 51.777,326.220 51.600,326.000 51.600 C 325.780 51.600,325.600 51.660,325.600 51.733 M73.260 53.042 C 72.962 53.378,72.799 53.732,72.895 53.829 C 72.992 53.926,73.398 53.644,73.798 53.202 C 74.197 52.761,74.361 52.407,74.162 52.415 C 73.963 52.424,73.557 52.705,73.260 53.042 M69.600 56.200 C 69.083 56.750,68.422 57.200,68.130 57.200 C 67.839 57.200,67.600 57.386,67.600 57.614 C 67.600 58.196,68.777 57.512,69.970 56.237 C 70.503 55.667,70.849 55.200,70.739 55.200 C 70.629 55.200,70.117 55.650,69.600 56.200 M331.371 56.697 C 332.015 57.409,332.630 57.904,332.738 57.796 C 332.845 57.688,332.858 57.555,332.767 57.500 C 332.675 57.445,332.060 56.951,331.400 56.401 L 330.200 55.403 331.371 56.697 M64.185 61.300 L 62.200 63.400 64.300 61.415 C 66.251 59.571,66.583 59.200,66.285 59.200 C 66.222 59.200,65.277 60.145,64.185 61.300 M334.400 59.325 C 334.400 59.394,334.985 59.979,335.700 60.625 L 337.000 61.800 335.825 60.500 C 334.730 59.288,334.400 59.016,334.400 59.325 M346.383 71.300 C 347.364 72.345,348.219 73.200,348.283 73.200 C 348.584 73.200,348.266 72.841,346.500 71.183 L 344.600 69.400 346.383 71.300 M53.775 71.700 L 52.600 73.000 53.900 71.825 C 55.112 70.730,55.384 70.400,55.075 70.400 C 55.006 70.400,54.421 70.985,53.775 71.700 M350.000 75.200 C 351.348 76.902,352.067 77.402,351.023 75.911 C 350.680 75.422,350.400 74.702,350.400 74.311 C 350.400 73.857,350.099 73.600,349.566 73.600 C 348.794 73.600,348.826 73.717,350.000 75.200 M50.100 75.616 C 48.837 77.175,48.971 77.533,50.250 76.014 C 50.827 75.328,51.232 74.708,51.150 74.636 C 51.067 74.564,50.595 75.005,50.100 75.616 M351.600 77.325 C 351.600 77.394,352.173 77.979,352.874 78.625 L 354.149 79.800 353.174 78.522 C 352.347 77.437,351.600 76.869,351.600 77.325 M46.962 79.392 C 44.895 81.764,43.491 83.600,43.744 83.600 C 43.856 83.600,45.052 82.250,46.400 80.600 C 49.086 77.313,49.443 76.544,46.962 79.392 M357.600 83.700 C 357.600 84.001,357.853 84.593,358.162 85.016 C 358.688 85.735,358.711 85.713,358.514 84.686 C 358.292 83.522,357.600 82.775,357.600 83.700 M359.594 87.032 C 360.141 87.674,360.716 88.361,360.872 88.558 C 361.028 88.754,361.063 88.574,360.950 88.158 C 360.837 87.741,360.262 87.054,359.672 86.632 L 358.600 85.864 359.594 87.032 M37.547 91.700 C 37.047 92.415,36.473 93.114,36.271 93.254 C 36.068 93.393,35.969 93.698,36.051 93.931 C 36.133 94.163,36.786 93.464,37.503 92.377 C 38.946 90.187,38.981 89.646,37.547 91.700 M31.298 100.266 C 31.021 100.377,30.898 100.634,31.023 100.837 C 31.148 101.040,30.860 101.755,30.382 102.426 C 29.904 103.097,29.600 103.733,29.707 103.840 C 29.814 103.947,30.248 103.441,30.673 102.717 C 31.395 101.486,32.085 99.960,31.887 100.032 C 31.839 100.049,31.574 100.154,31.298 100.266 M27.094 108.103 L 26.388 109.400 27.194 108.456 C 27.880 107.652,28.246 106.794,27.900 106.803 C 27.845 106.804,27.482 107.389,27.094 108.103 M25.684 110.240 C 25.401 110.548,25.302 110.800,25.464 110.800 C 25.627 110.800,25.544 111.016,25.280 111.280 C 25.016 111.544,24.803 111.949,24.807 112.180 C 24.810 112.411,25.193 112.007,25.657 111.283 C 26.544 109.898,26.560 109.290,25.684 110.240 M23.927 113.800 C 23.677 114.350,23.320 114.800,23.136 114.800 C 22.951 114.800,22.800 114.991,22.800 115.224 C 22.800 115.457,22.981 115.535,23.203 115.398 C 23.679 115.104,24.920 112.800,24.602 112.800 C 24.481 112.800,24.178 113.250,23.927 113.800 M17.884 125.600 C 17.999 126.040,18.141 126.400,18.200 126.400 C 18.259 126.400,18.401 126.040,18.516 125.600 C 18.647 125.100,18.528 124.800,18.200 124.800 C 17.872 124.800,17.753 125.100,17.884 125.600 M17.200 127.613 C 17.200 128.059,16.930 128.529,16.600 128.655 C 16.270 128.782,16.000 129.041,16.000 129.230 C 16.000 129.420,16.257 129.476,16.572 129.355 C 17.246 129.097,18.151 126.800,17.579 126.800 C 17.371 126.800,17.200 127.166,17.200 127.613 M13.300 136.688 C 12.732 136.891,12.611 138.000,13.157 138.000 C 13.494 138.000,14.145 136.787,13.909 136.598 C 13.849 136.549,13.575 136.590,13.300 136.688 M11.800 141.600 C 11.650 142.073,11.617 142.550,11.727 142.660 C 11.837 142.770,12.050 142.473,12.200 142.000 C 12.350 141.527,12.383 141.050,12.273 140.940 C 12.163 140.830,11.950 141.127,11.800 141.600 M391.502 150.200 C 391.607 150.750,391.762 151.200,391.847 151.200 C 391.931 151.200,392.000 150.750,392.000 150.200 C 392.000 149.650,391.845 149.200,391.655 149.200 C 391.466 149.200,391.397 149.650,391.502 150.200 M393.924 159.000 C 394.014 159.770,394.138 160.400,394.200 160.400 C 394.262 160.400,394.386 159.770,394.476 159.000 C 394.575 158.151,394.467 157.600,394.200 157.600 C 393.933 157.600,393.825 158.151,393.924 159.000 M394.400 161.789 C 394.400 162.587,395.074 162.906,395.333 162.231 C 395.452 161.920,395.291 161.567,394.975 161.446 C 394.643 161.318,394.400 161.463,394.400 161.789 M5.600 163.733 C 5.600 164.100,5.330 164.400,5.000 164.400 C 4.670 164.400,4.400 164.580,4.400 164.800 C 4.400 165.020,4.658 165.200,4.973 165.200 C 5.571 165.200,6.248 163.714,5.837 163.303 C 5.706 163.173,5.600 163.367,5.600 163.733 M396.092 168.875 C 396.291 169.473,397.200 169.802,397.200 169.276 C 397.200 169.061,396.915 168.776,396.567 168.643 C 396.177 168.493,395.994 168.582,396.092 168.875 M3.600 169.200 C 3.600 169.420,3.870 169.600,4.200 169.600 C 4.530 169.600,4.800 169.420,4.800 169.200 C 4.800 168.980,4.530 168.800,4.200 168.800 C 3.870 168.800,3.600 168.980,3.600 169.200 M2.800 172.567 C 2.800 172.915,3.085 173.200,3.433 173.200 C 3.782 173.200,3.995 172.986,3.908 172.725 C 3.661 171.983,2.800 171.860,2.800 172.567 M397.067 172.267 C 396.581 172.753,396.790 173.200,397.500 173.194 C 398.048 173.189,398.081 173.113,397.655 172.842 C 397.194 172.551,397.194 172.463,397.655 172.280 C 397.955 172.161,398.005 172.049,397.767 172.032 C 397.528 172.014,397.213 172.120,397.067 172.267 M397.632 178.276 C 397.614 178.758,397.792 179.271,398.027 179.416 C 398.591 179.765,399.102 179.238,398.548 178.878 C 398.313 178.725,398.017 178.330,397.892 178.000 C 397.736 177.592,397.653 177.680,397.632 178.276 M2.500 178.598 C 1.843 179.344,1.869 179.600,2.600 179.600 C 2.933 179.600,3.200 179.244,3.200 178.800 C 3.200 177.862,3.159 177.850,2.500 178.598 M399.293 194.000 C 399.294 195.210,399.432 196.740,399.600 197.400 C 400.050 199.167,400.070 195.563,399.623 193.400 C 399.295 191.813,399.292 191.818,399.293 194.000 M0.900 193.028 C 0.289 193.686,0.211 198.800,0.813 198.800 C 1.474 198.800,1.647 197.895,1.520 195.105 C 1.423 192.989,1.305 192.593,0.900 193.028 M399.430 217.934 C 399.268 219.988,399.222 221.755,399.329 221.862 C 399.592 222.125,400.137 215.407,399.907 214.734 C 399.807 214.440,399.593 215.880,399.430 217.934 M0.400 217.200 C 0.400 218.520,0.568 219.600,0.773 219.600 C 0.979 219.600,1.222 220.095,1.313 220.700 C 1.409 221.332,1.504 220.949,1.536 219.800 C 1.605 217.312,1.209 214.800,0.748 214.800 C 0.556 214.800,0.400 215.880,0.400 217.200 M2.000 234.551 C 2.000 234.634,2.270 234.926,2.600 235.200 C 3.091 235.608,3.200 235.580,3.200 235.049 C 3.200 234.692,2.930 234.400,2.600 234.400 C 2.270 234.400,2.000 234.468,2.000 234.551 M397.750 234.987 C 397.626 235.310,397.617 235.805,397.731 236.087 C 397.860 236.409,397.949 236.340,397.968 235.900 C 397.986 235.515,398.180 235.200,398.400 235.200 C 398.620 235.200,398.800 235.020,398.800 234.800 C 398.800 234.185,398.003 234.326,397.750 234.987 M3.300 240.832 C 3.685 241.056,4.014 241.726,4.032 242.320 C 4.049 242.914,4.157 243.167,4.271 242.883 C 4.639 241.965,4.019 240.399,3.292 240.412 C 2.641 240.424,2.641 240.448,3.300 240.832 M3.600 244.800 C 3.600 245.020,3.870 245.200,4.200 245.200 C 4.530 245.200,4.800 245.020,4.800 244.800 C 4.800 244.580,4.530 244.400,4.200 244.400 C 3.870 244.400,3.600 244.580,3.600 244.800 M396.267 244.667 C 395.781 245.153,395.990 245.579,396.600 245.345 C 396.930 245.218,397.200 244.954,397.200 244.757 C 397.200 244.338,396.649 244.284,396.267 244.667 M4.754 247.300 C 4.656 248.469,4.757 249.200,5.017 249.200 C 5.265 249.200,5.378 248.581,5.291 247.700 C 5.058 245.348,4.927 245.250,4.754 247.300 M5.765 251.500 C 5.920 251.775,5.857 252.000,5.624 252.000 C 5.391 252.000,5.200 252.180,5.200 252.400 C 5.200 252.620,5.457 252.800,5.771 252.800 C 6.085 252.800,6.418 253.025,6.512 253.300 C 6.606 253.575,6.607 253.350,6.513 252.800 C 6.420 252.250,6.150 251.620,5.913 251.400 C 5.618 251.125,5.571 251.157,5.765 251.500 M9.600 267.357 C 9.600 267.664,9.874 268.020,10.209 268.148 C 10.706 268.339,10.741 268.236,10.395 267.591 C 9.899 266.664,9.600 266.576,9.600 267.357 M15.200 283.800 C 15.200 284.130,15.470 284.400,15.800 284.400 C 16.130 284.400,16.400 284.130,16.400 283.800 C 16.400 283.470,16.130 283.200,15.800 283.200 C 15.470 283.200,15.200 283.470,15.200 283.800 M16.589 285.342 C 17.042 285.674,17.232 286.139,17.078 286.542 C 16.917 286.962,17.030 287.200,17.392 287.200 C 17.848 287.200,17.877 286.965,17.540 286.000 C 17.310 285.340,16.835 284.800,16.484 284.800 C 15.953 284.800,15.970 284.890,16.589 285.342 M18.802 290.129 C 18.801 290.529,19.070 291.127,19.400 291.457 C 20.157 292.214,20.157 291.993,19.402 290.546 C 18.976 289.727,18.804 289.608,18.802 290.129 M378.200 297.200 C 378.050 297.673,378.017 298.150,378.127 298.260 C 378.237 298.370,378.450 298.073,378.600 297.600 C 378.750 297.127,378.783 296.650,378.673 296.540 C 378.563 296.430,378.350 296.727,378.200 297.200 M377.200 299.600 C 377.200 299.820,377.470 300.000,377.800 300.000 C 378.130 300.000,378.400 299.820,378.400 299.600 C 378.400 299.380,378.130 299.200,377.800 299.200 C 377.470 299.200,377.200 299.380,377.200 299.600 M376.400 301.200 C 376.400 301.420,376.670 301.600,377.000 301.600 C 377.330 301.600,377.600 301.420,377.600 301.200 C 377.600 300.980,377.330 300.800,377.000 300.800 C 376.670 300.800,376.400 300.980,376.400 301.200 M371.326 309.900 C 371.189 310.285,370.987 310.763,370.877 310.962 C 370.766 311.161,370.884 311.195,371.138 311.038 C 371.392 310.881,371.600 310.508,371.600 310.210 C 371.600 309.911,371.825 309.576,372.100 309.465 C 372.492 309.307,372.489 309.256,372.087 309.232 C 371.806 309.214,371.463 309.515,371.326 309.900 M30.704 312.612 C 30.808 313.155,31.035 313.600,31.209 313.600 C 31.580 313.600,31.240 312.072,30.810 311.806 C 30.648 311.706,30.601 312.069,30.704 312.612 M31.869 314.665 C 31.393 315.141,31.578 315.462,32.600 315.927 C 33.150 316.178,33.600 316.289,33.600 316.175 C 33.600 315.708,32.118 314.416,31.869 314.665 M366.907 316.778 C 366.545 317.357,366.535 317.636,366.870 317.843 C 367.135 318.007,367.214 317.946,367.059 317.696 C 366.914 317.461,367.003 317.199,367.258 317.114 C 367.512 317.029,367.647 316.742,367.559 316.476 C 367.456 316.169,367.218 316.279,366.907 316.778 M365.056 319.478 C 364.605 319.928,364.781 320.400,365.400 320.400 C 365.730 320.400,366.000 320.231,366.000 320.024 C 366.000 319.519,365.375 319.158,365.056 319.478 M38.311 323.823 C 38.800 324.165,39.201 324.840,39.203 325.323 C 39.204 325.877,39.646 326.451,40.403 326.881 C 41.175 327.321,41.605 327.889,41.615 328.481 C 41.625 329.073,42.089 329.686,42.915 330.202 C 43.631 330.648,44.359 331.534,44.559 332.202 C 44.768 332.901,45.518 333.785,46.359 334.325 L 47.800 335.250 46.500 334.005 C 45.785 333.320,45.200 332.517,45.200 332.221 C 45.200 331.925,44.589 331.147,43.843 330.491 C 43.096 329.836,42.366 328.922,42.219 328.460 C 42.073 327.999,41.513 327.275,40.976 326.853 C 40.439 326.430,40.000 325.910,40.000 325.696 C 40.000 325.091,38.395 323.200,37.882 323.200 C 37.629 323.200,37.822 323.480,38.311 323.823 M356.036 331.900 C 355.584 332.505,354.716 333.507,354.107 334.127 L 353.000 335.253 354.483 334.327 C 355.299 333.817,355.974 333.144,355.983 332.831 C 355.992 332.519,356.298 331.934,356.662 331.531 C 357.026 331.129,357.219 330.800,357.091 330.800 C 356.963 330.800,356.488 331.295,356.036 331.900 M48.000 336.987 C 48.000 337.418,50.635 340.000,51.075 340.000 C 51.339 340.000,51.790 340.315,52.077 340.700 C 52.365 341.085,52.960 341.662,53.400 341.983 C 53.840 342.303,53.580 341.898,52.822 341.083 C 52.063 340.267,51.198 339.600,50.898 339.600 C 50.598 339.600,50.472 339.407,50.618 339.170 C 50.933 338.661,49.293 336.800,48.530 336.800 C 48.239 336.800,48.000 336.884,48.000 336.987 M345.400 344.000 C 344.768 344.660,344.387 345.200,344.554 345.200 C 344.871 345.200,345.423 344.677,346.349 343.498 C 347.221 342.390,346.658 342.687,345.400 344.000 M54.800 343.648 C 54.800 343.885,55.340 344.583,56.000 345.200 C 56.660 345.817,57.200 346.609,57.200 346.960 C 57.200 347.333,57.534 347.600,58.000 347.600 C 58.440 347.600,58.800 347.810,58.800 348.067 C 58.800 348.323,58.935 348.399,59.099 348.234 C 59.264 348.069,59.129 347.723,58.799 347.465 C 58.470 347.207,57.435 346.145,56.500 345.107 C 55.565 344.068,54.800 343.412,54.800 343.648 M343.284 346.215 C 342.852 346.706,342.900 346.800,343.584 346.800 C 344.043 346.800,344.400 346.537,344.400 346.200 C 344.400 345.449,343.955 345.455,343.284 346.215 M340.817 348.769 C 340.590 349.192,340.113 349.830,339.755 350.188 C 339.397 350.545,339.187 350.921,339.288 351.022 C 339.609 351.342,341.200 349.732,341.200 349.086 C 341.200 348.746,341.425 348.376,341.700 348.265 C 342.077 348.113,342.080 348.055,341.714 348.032 C 341.447 348.014,341.043 348.346,340.817 348.769 M59.603 348.553 C 59.602 348.747,59.916 349.197,60.303 349.553 C 60.689 349.909,61.269 350.712,61.590 351.337 C 61.912 351.963,62.237 352.289,62.312 352.063 C 62.452 351.644,63.275 352.202,65.050 353.918 C 65.573 354.423,66.000 354.670,66.000 354.466 C 66.000 354.263,65.190 353.433,64.200 352.621 C 63.209 351.810,61.771 350.483,61.003 349.673 C 60.235 348.863,59.605 348.359,59.603 348.553 M337.776 351.787 C 337.019 352.360,337.023 352.375,337.900 352.387 C 338.439 352.395,338.800 352.159,338.800 351.800 C 338.800 351.059,338.741 351.058,337.776 351.787 M69.738 358.197 C 69.992 358.745,70.366 359.195,70.569 359.197 C 70.771 359.199,71.311 359.510,71.769 359.890 C 72.226 360.269,71.888 359.819,71.019 358.890 C 69.167 356.911,69.132 356.892,69.738 358.197 M331.200 357.672 C 331.200 358.005,330.795 358.473,330.300 358.712 L 329.400 359.146 330.273 359.173 C 331.118 359.199,331.967 357.834,331.437 357.303 C 331.306 357.173,331.200 357.339,331.200 357.672 M326.363 361.845 C 326.069 362.199,325.462 362.638,325.014 362.819 C 324.211 363.145,324.211 363.149,325.000 363.162 C 325.440 363.169,326.123 362.731,326.519 362.187 C 327.317 361.090,327.201 360.835,326.363 361.845 M322.400 365.056 C 322.400 365.270,321.905 365.641,321.300 365.880 L 320.200 366.315 321.257 366.357 C 322.235 366.397,323.139 365.406,322.609 364.876 C 322.494 364.761,322.400 364.842,322.400 365.056 M79.200 365.986 C 79.200 366.214,79.455 366.400,79.767 366.400 C 80.078 366.400,80.424 366.625,80.535 366.900 C 80.687 367.277,80.745 367.280,80.768 366.914 C 80.786 366.647,80.440 366.235,80.000 366.000 C 79.458 365.710,79.200 365.705,79.200 365.986 M82.800 368.320 C 82.800 368.510,83.242 368.901,83.782 369.190 C 84.322 369.479,84.841 370.005,84.935 370.358 C 85.086 370.920,85.113 370.922,85.154 370.375 C 85.179 370.032,84.660 369.351,84.000 368.863 C 83.340 368.375,82.800 368.131,82.800 368.320 M313.019 371.750 C 312.191 372.462,312.044 372.780,312.433 373.021 C 312.747 373.214,313.022 373.135,313.126 372.821 C 313.222 372.534,313.638 371.963,314.050 371.550 C 315.130 370.470,314.328 370.625,313.019 371.750 M87.206 371.700 C 87.203 372.085,87.365 372.400,87.567 372.400 C 87.769 372.400,88.264 372.504,88.667 372.630 C 89.281 372.823,89.270 372.780,88.600 372.364 C 88.160 372.092,87.668 371.673,87.506 371.434 C 87.327 371.170,87.210 371.274,87.206 371.700 M89.606 373.253 C 89.603 373.613,89.997 374.011,90.483 374.137 C 91.596 374.429,91.971 374.114,90.957 373.739 C 90.541 373.584,90.068 373.265,89.906 373.029 C 89.725 372.765,89.610 372.851,89.606 373.253 M92.000 374.938 C 92.000 375.302,92.315 375.603,92.700 375.606 C 93.298 375.611,93.313 375.669,92.800 376.000 C 92.287 376.331,92.302 376.389,92.900 376.394 C 93.823 376.402,93.786 375.892,92.800 375.000 C 92.081 374.349,92.000 374.343,92.000 374.938 M307.858 375.197 C 307.135 375.928,307.137 375.942,307.958 375.727 C 308.421 375.606,308.800 375.258,308.800 374.953 C 308.800 374.268,308.770 374.275,307.858 375.197 M96.681 377.787 C 97.077 378.331,97.566 378.781,97.770 378.787 C 97.973 378.794,97.717 378.350,97.200 377.800 C 96.001 376.523,95.757 376.518,96.681 377.787 M98.640 378.959 C 98.758 379.268,99.203 379.612,99.628 379.723 C 100.655 379.992,100.601 379.824,99.412 379.045 C 98.639 378.538,98.471 378.519,98.640 378.959 M301.200 379.193 C 300.267 379.916,300.258 379.953,301.072 379.745 C 301.552 379.622,302.041 379.269,302.160 378.961 C 302.432 378.252,302.406 378.258,301.200 379.193 M102.677 381.456 C 102.792 381.755,103.226 382.000,103.643 382.000 C 104.059 382.000,104.400 382.180,104.400 382.400 C 104.400 382.620,104.724 382.800,105.120 382.800 C 105.516 382.800,106.082 383.025,106.379 383.300 C 106.723 383.620,106.823 383.633,106.657 383.335 C 106.252 382.613,102.428 380.808,102.677 381.456 M277.200 391.400 C 276.795 391.888,276.815 392.000,277.308 392.000 C 277.642 392.000,278.018 391.730,278.145 391.400 C 278.271 391.070,278.223 390.800,278.036 390.800 C 277.850 390.800,277.474 391.070,277.200 391.400 M264.400 396.400 C 264.400 396.620,264.670 396.800,265.000 396.800 C 265.330 396.800,265.600 396.620,265.600 396.400 C 265.600 396.180,265.330 396.000,265.000 396.000 C 264.670 396.000,264.400 396.180,264.400 396.400 M140.800 398.010 C 140.800 398.225,141.430 398.400,142.200 398.400 C 142.970 398.400,143.600 398.580,143.600 398.800 C 143.600 399.020,144.185 399.187,144.900 399.172 L 146.200 399.144 144.800 398.635 C 142.671 397.861,140.800 397.569,140.800 398.010 M255.600 398.800 L 254.600 399.120 255.700 399.160 C 256.305 399.182,256.800 399.020,256.800 398.800 C 256.800 398.580,256.755 398.418,256.700 398.440 C 256.645 398.462,256.150 398.624,255.600 398.800 M146.800 399.655 C 146.800 399.845,147.250 400.000,147.800 400.000 C 148.350 400.000,148.800 399.931,148.800 399.847 C 148.800 399.762,148.350 399.607,147.800 399.502 C 147.250 399.397,146.800 399.466,146.800 399.655 M152.800 401.269 C 152.800 401.451,153.340 401.600,154.000 401.600 C 154.660 401.600,155.200 401.530,155.200 401.445 C 155.200 401.360,154.660 401.212,154.000 401.115 C 153.340 401.018,152.800 401.087,152.800 401.269 M246.800 401.166 L 245.800 401.452 246.880 401.667 C 247.580 401.806,248.033 401.691,248.167 401.341 C 248.393 400.752,248.291 400.739,246.800 401.166 M244.000 402.200 C 244.000 402.530,244.180 402.800,244.400 402.800 C 244.620 402.800,244.800 402.530,244.800 402.200 C 244.800 401.870,244.620 401.600,244.400 401.600 C 244.180 401.600,244.000 401.870,244.000 402.200 M164.190 403.848 C 164.547 404.204,164.938 404.396,165.059 404.274 C 165.415 403.918,164.806 403.200,164.148 403.200 C 163.625 403.200,163.631 403.288,164.190 403.848 M234.976 403.822 C 234.212 404.434,234.213 404.438,235.000 404.076 C 235.440 403.874,236.070 403.608,236.400 403.486 C 236.918 403.293,236.915 403.259,236.376 403.232 C 236.034 403.214,235.404 403.480,234.976 403.822 M230.800 404.388 C 229.805 404.644,229.804 404.646,230.700 404.885 C 231.194 405.017,231.707 404.950,231.840 404.736 C 232.184 404.178,231.937 404.095,230.800 404.388 M173.855 405.400 C 174.113 406.071,174.639 406.185,174.974 405.642 C 175.096 405.445,174.912 405.175,174.565 405.042 C 173.664 404.696,173.598 404.730,173.855 405.400 M223.500 405.482 C 223.995 405.578,224.805 405.578,225.300 405.482 C 225.795 405.387,225.390 405.309,224.400 405.309 C 223.410 405.309,223.005 405.387,223.500 405.482 M181.679 405.812 C 181.796 405.929,182.501 406.193,183.246 406.399 C 184.485 406.742,184.534 406.725,183.824 406.187 C 183.117 405.653,181.181 405.314,181.679 405.812 M217.600 405.962 C 216.603 406.244,216.602 406.246,217.500 406.485 C 217.995 406.617,218.400 406.575,218.400 406.392 C 218.400 406.209,218.715 405.976,219.100 405.876 C 219.561 405.755,219.595 405.691,219.200 405.686 C 218.870 405.683,218.150 405.807,217.600 405.962 M192.945 406.729 C 193.305 406.800,193.600 406.982,193.600 407.132 C 193.600 407.283,196.570 407.405,200.200 407.403 C 203.830 407.401,206.800 407.276,206.800 407.124 C 206.800 406.972,207.475 406.792,208.300 406.724 C 209.125 406.656,205.860 406.600,201.045 406.600 C 196.230 406.600,192.585 406.658,192.945 406.729 " stroke="none" fill="#eeda5c" fill-rule="evenodd"></path></g></svg>